<?xml version="1.0" standalone="no"?>
<!DOCTYPE svg PUBLIC "-//W3C//DTD SVG 20010904//EN"
 "http://www.w3.org/TR/2001/REC-SVG-20010904/DTD/svg10.dtd">
<svg version="1.0" xmlns="http://www.w3.org/2000/svg"
 width="475.000000pt" height="475.000000pt" viewBox="0 0 475.000000 475.000000"
 preserveAspectRatio="xMidYMid meet">
<metadata>
Created by potrace 1.11, written by Peter Selinger 2001-2013
</metadata>
<g transform="translate(0.000000,475.000000) scale(0.100000,-0.100000)"
fill="#000000" stroke="none">
<path d="M2335 4650 c6 -10 3 -12 -11 -7 -17 6 -17 6 -3 -5 9 -7 16 -17 17
-23 1 -13 32 -19 43 -8 4 4 3 15 -2 23 -9 13 -10 12 -5 -2 4 -13 0 -18 -14
-18 -13 0 -18 6 -15 20 2 11 -1 23 -7 26 -7 5 -8 2 -3 -6z"/>
<path d="M2455 4651 c-3 -5 -2 -12 3 -15 5 -3 9 1 9 9 0 17 -3 19 -12 6z"/>
<path d="M2395 4641 c-9 -15 15 -25 28 -12 9 9 7 10 -7 5 -13 -5 -17 -4 -12 4
4 7 5 12 2 12 -3 0 -7 -4 -11 -9z"/>
<path d="M2266 4628 c3 -5 10 -6 15 -3 13 9 11 12 -6 12 -8 0 -12 -4 -9 -9z"/>
<path d="M2510 4628 c0 -4 6 -8 14 -8 8 0 17 4 20 8 2 4 -4 8 -15 8 -10 0 -19
-4 -19 -8z"/>
<path d="M2240 4621 c0 -7 -4 -10 -8 -7 -4 2 -9 -5 -9 -16 -2 -21 -2 -21 14 1
8 12 12 25 9 28 -3 4 -6 1 -6 -6z"/>
<path d="M2435 4619 c-4 -6 -5 -12 -2 -15 2 -3 7 2 10 11 7 17 1 20 -8 4z"/>
<path d="M1993 4613 c4 -6 3 -13 -2 -15 -5 -1 -3 -11 4 -22 13 -17 14 -17 11
8 -1 14 -6 29 -11 34 -4 4 -5 2 -2 -5z"/>
<path d="M2031 4603 c9 -10 8 -13 -1 -13 -8 0 -11 -3 -7 -6 3 -3 14 -1 24 5
11 6 13 11 5 11 -7 0 -11 4 -8 8 3 5 -1 9 -9 9 -11 0 -12 -4 -4 -14z"/>
<path d="M2071 4615 c1 -19 18 -51 18 -35 0 8 -4 22 -9 30 -5 8 -9 11 -9 5z"/>
<path d="M2095 4610 c3 -5 8 -10 11 -10 2 0 4 5 4 10 0 6 -5 10 -11 10 -5 0
-7 -4 -4 -10z"/>
<path d="M2123 4605 c-8 -22 5 -31 20 -15 10 10 9 11 -2 5 -11 -6 -13 -4 -8 8
3 10 4 17 1 17 -2 0 -7 -7 -11 -15z"/>
<path d="M2157 4607 c2 -4 8 -5 13 -2 4 3 11 -1 13 -7 4 -10 6 -10 6 0 1 7 6
10 11 7 6 -3 10 -2 10 3 0 5 -13 9 -29 8 -16 0 -27 -4 -24 -9z"/>
<path d="M2290 4610 c0 -5 -3 -9 -7 -9 -20 3 -34 -2 -28 -11 3 -5 1 -10 -5
-10 -6 0 -8 -5 -4 -12 5 -8 2 -9 -9 -5 -10 3 -17 3 -17 -2 0 -5 -14 -7 -30 -6
-17 1 -33 -1 -36 -6 -3 -5 -10 -7 -15 -3 -5 3 -7 9 -5 13 3 4 -5 8 -17 8 -15
2 -18 0 -8 -6 11 -7 11 -10 0 -17 -7 -4 -14 -3 -17 4 -2 7 -8 12 -13 12 -6 0
-8 -4 -4 -9 3 -6 -4 -8 -15 -6 -12 2 -23 -2 -27 -11 -4 -11 -9 -12 -19 -4 -8
8 -19 8 -31 2 -10 -5 -28 -8 -40 -7 -13 1 -23 -2 -23 -7 0 -5 -5 -6 -10 -3 -6
4 -8 12 -4 18 3 7 -3 1 -14 -13 -12 -14 -24 -22 -28 -18 -3 4 -15 3 -26 -3
-33 -18 -65 -20 -77 -5 -9 10 -7 17 6 27 15 12 16 12 9 -6 -4 -11 -4 -16 0
-12 4 4 12 2 19 -3 8 -7 12 -5 12 5 0 8 -4 12 -8 10 -4 -3 -10 2 -13 11 -5 13
-9 13 -30 -3 -19 -14 -21 -20 -10 -26 8 -4 14 -13 14 -19 0 -6 -12 -3 -26 7
-18 11 -29 14 -36 7 -6 -6 -18 -8 -27 -5 -10 3 -12 2 -6 -4 10 -7 11 -17 6
-40 -1 -5 -7 2 -14 14 -9 16 -16 20 -27 13 -13 -8 -12 -10 3 -10 23 0 22 -17
-3 -30 -11 -6 -20 -8 -20 -4 0 3 -7 1 -15 -6 -19 -16 -85 -24 -85 -10 0 5 -5
10 -12 10 -9 0 -9 -3 0 -12 18 -18 15 -28 -8 -28 -11 0 -20 -4 -20 -10 0 -5
-9 -10 -20 -10 -11 0 -20 -5 -20 -11 0 -5 -5 -7 -11 -3 -8 5 -8 9 1 14 8 5 8
10 2 14 -11 7 -25 -21 -17 -34 7 -11 -22 -21 -42 -13 -13 5 -15 3 -9 -13 6
-16 3 -15 -18 5 -22 20 -54 22 -41 2 2 -5 -6 -13 -20 -19 -17 -8 -22 -16 -18
-31 3 -13 1 -21 -6 -21 -7 0 -9 -5 -5 -12 5 -9 2 -9 -9 1 -11 9 -17 10 -17 2
0 -6 -5 -11 -11 -11 -5 0 -7 5 -4 10 10 16 -1 11 -16 -7 -10 -11 -10 -14 -1
-9 7 4 12 2 12 -4 0 -7 -7 -9 -16 -6 -9 3 -18 6 -21 6 -4 0 2 9 12 20 10 11
13 20 7 20 -7 0 -12 -5 -12 -11 0 -5 -5 -7 -12 -3 -7 5 -8 3 -3 -6 6 -10 3
-12 -11 -7 -15 5 -14 3 4 -9 26 -19 30 -36 5 -27 -12 5 -14 3 -8 -7 5 -9 4
-11 -3 -6 -8 4 -12 0 -12 -11 0 -15 -2 -16 -10 -3 -8 13 -10 13 -10 -2 0 -11
-5 -15 -15 -12 -13 5 -13 9 -3 23 10 13 10 14 -2 4 -21 -19 -32 -15 -18 6 7
11 15 18 19 15 5 -2 13 6 19 18 9 20 9 21 -2 7 -7 -9 -21 -15 -31 -13 -9 1
-14 -2 -11 -7 3 -6 1 -16 -6 -24 -9 -11 -7 -16 11 -26 21 -11 21 -13 6 -24 -9
-6 -13 -16 -9 -21 4 -4 0 -3 -9 4 -12 9 -20 8 -35 -4 -10 -8 -13 -13 -6 -9 6
3 12 2 12 -3 0 -17 -13 -22 -28 -9 -13 9 -14 9 -8 0 4 -7 2 -13 -4 -13 -6 0
-15 -11 -20 -25 -5 -14 -14 -25 -20 -25 -6 0 -8 -5 -4 -12 4 -7 3 -8 -5 -4 -6
4 -9 12 -6 17 4 5 1 9 -5 9 -7 0 -9 -8 -5 -20 5 -15 2 -20 -12 -20 -30 0 -65
-30 -60 -51 3 -11 1 -16 -4 -13 -5 3 -12 -2 -15 -10 -3 -9 -12 -16 -20 -16 -8
0 -13 -4 -11 -9 1 -5 -7 -17 -18 -26 -11 -9 -13 -14 -5 -10 8 4 6 -1 -4 -9
-11 -9 -24 -16 -29 -16 -4 0 -5 -5 -1 -12 4 -7 3 -8 -4 -4 -7 4 -12 1 -12 -7
0 -8 -9 -22 -20 -32 -11 -10 -17 -23 -14 -29 3 -6 -2 -2 -11 9 -16 19 -16 19
-11 -7 6 -33 1 -36 -14 -7 -9 15 -8 24 1 35 8 10 8 14 0 14 -6 0 -11 -4 -11
-10 0 -5 -8 -7 -17 -4 -11 4 -14 3 -7 -3 24 -18 35 -52 24 -73 -12 -23 -32
-28 -24 -6 8 21 -13 29 -37 13 -20 -14 -19 -15 10 -25 17 -6 31 -14 31 -17 0
-3 -4 -3 -10 0 -5 3 -10 -3 -10 -14 0 -12 -5 -21 -10 -21 -6 0 -16 -11 -22
-25 -11 -24 -12 -24 -30 -9 -22 20 -25 9 -3 -12 13 -14 13 -18 -3 -39 -22 -31
-35 -32 -26 -2 6 20 4 19 -15 -5 -22 -27 -50 -40 -35 -16 4 6 3 8 -3 5 -16
-10 -8 -50 13 -58 10 -4 13 -8 5 -8 -11 -1 -11 -4 0 -18 8 -9 9 -14 3 -10 -6
3 -23 -18 -40 -51 -16 -31 -35 -65 -43 -74 -8 -10 -11 -18 -8 -18 3 0 1 -13
-4 -30 -6 -16 -16 -30 -21 -30 -7 0 -7 4 -1 13 15 19 24 49 13 42 -6 -3 -10
-12 -10 -20 0 -7 -15 -22 -32 -34 -18 -11 -28 -21 -22 -21 5 0 15 5 22 12 9 9
15 9 24 0 9 -9 8 -12 -4 -12 -9 0 -20 -5 -24 -12 -5 -8 -2 -9 9 -5 10 3 17 2
17 -3 0 -10 -10 -13 -45 -12 -17 1 -17 0 -3 -4 10 -3 18 -11 18 -17 0 -7 4 -6
10 3 6 9 10 10 10 3 0 -6 -5 -15 -10 -18 -6 -4 -7 -11 -4 -17 5 -7 2 -8 -6 -3
-10 6 -12 4 -7 -9 4 -9 3 -15 -3 -11 -5 3 -9 -3 -9 -12 1 -42 -9 -77 -22 -81
-11 -3 -10 -1 1 7 12 8 12 11 1 11 -11 0 -11 3 0 17 12 14 10 14 -13 -1 -32
-21 -36 -28 -11 -19 10 4 14 2 9 -5 -3 -6 -2 -13 2 -16 14 -8 2 -56 -14 -56
-8 0 -14 -5 -14 -11 0 -6 7 -8 16 -5 13 5 14 4 6 -7 -7 -8 -9 -17 -6 -20 4 -4
-5 -1 -19 6 -14 6 -24 14 -22 17 2 3 0 12 -5 20 -7 11 -9 9 -7 -9 1 -14 9 -26
19 -29 23 -6 23 -15 -2 -37 -14 -13 -20 -14 -20 -5 0 7 -3 11 -6 8 -11 -12 16
-47 31 -41 13 4 14 1 6 -19 -5 -14 -6 -31 -1 -38 5 -8 5 -19 1 -25 -11 -13
-25 -73 -25 -108 0 -16 -5 -26 -11 -23 -6 2 -17 -5 -23 -15 -8 -12 -8 -19 -2
-19 5 0 10 5 10 10 0 6 4 10 9 10 6 0 9 -9 8 -20 -1 -11 -5 -20 -9 -20 -4 0
-12 -10 -19 -21 -6 -12 -7 -19 -2 -16 4 3 14 -1 20 -9 21 -22 -2 -25 -25 -3
-12 11 -22 16 -22 11 0 -4 14 -18 30 -31 19 -13 28 -27 23 -34 -12 -19 -11
-81 1 -89 7 -5 8 -8 0 -8 -6 0 -9 -22 -8 -60 2 -42 0 -58 -8 -54 -7 4 -8 2 -4
-4 8 -14 -17 -55 -27 -45 -4 3 -7 1 -7 -5 0 -19 16 -14 33 11 8 12 19 18 23
14 5 -4 2 -12 -6 -17 -10 -7 -11 -10 -2 -10 6 0 12 -7 12 -15 0 -8 -4 -15 -10
-15 -5 0 -10 -5 -10 -11 0 -5 5 -7 10 -4 6 4 10 -5 8 -22 -1 -15 4 -39 11 -52
7 -13 9 -21 4 -18 -6 4 -10 -9 -11 -28 -1 -19 3 -35 8 -35 5 0 6 -7 3 -17 -4
-10 -2 -14 4 -10 7 4 10 0 8 -10 -1 -10 0 -22 4 -28 6 -11 9 -24 14 -65 3 -20
-1 -26 -15 -27 -10 -1 -16 2 -14 6 5 8 -30 51 -41 51 -4 0 -2 -5 5 -12 9 -9 8
-16 -4 -29 -10 -12 -12 -19 -4 -24 6 -3 10 -3 9 2 -3 20 2 25 16 13 8 -7 12
-17 9 -22 -4 -6 1 -6 13 0 23 13 48 0 40 -21 -3 -8 0 -23 7 -33 23 -34 25 -74
5 -85 -22 -11 -23 -7 -8 24 10 21 10 21 -6 2 -25 -31 -13 -45 26 -30 15 6 19
-2 20 -48 0 -9 5 -15 10 -11 5 3 8 2 7 -3 -1 -4 3 -18 10 -31 7 -12 10 -22 6
-22 -3 0 -1 -6 5 -13 6 -8 8 -17 4 -20 -3 -4 -1 -7 5 -7 7 0 12 -11 12 -25 0
-14 5 -25 10 -25 7 0 7 -7 -1 -21 -9 -17 -13 -19 -20 -8 -5 8 -9 9 -9 3 0 -21
14 -24 33 -7 19 17 20 17 8 -4 -12 -24 -5 -56 11 -47 6 4 5 10 -3 15 -7 4 -10
11 -6 16 11 10 26 -17 20 -34 -3 -8 4 -21 16 -29 24 -17 28 -34 7 -34 -21 0
-26 -13 -12 -31 10 -15 13 -15 26 -1 13 14 12 15 -3 9 -9 -3 -19 -2 -22 2 -5
10 31 22 39 13 3 -3 6 -16 6 -29 0 -13 4 -22 9 -19 5 3 12 -1 15 -10 3 -8 2
-13 -3 -9 -12 7 -41 -5 -41 -17 0 -7 5 -6 14 1 19 16 49 3 41 -17 -3 -9 -3
-14 0 -10 4 3 15 -1 24 -10 17 -16 17 -18 -1 -44 -11 -16 -16 -28 -11 -28 4 0
14 9 21 21 13 20 14 20 27 2 12 -15 12 -21 -1 -40 -20 -32 -17 -39 5 -12 l18
23 7 -22 c4 -12 11 -22 16 -22 5 0 6 -7 3 -17 -4 -11 -3 -14 5 -9 8 5 12 0 12
-13 0 -15 4 -19 17 -14 11 4 14 3 9 -5 -4 -7 -2 -12 3 -12 6 0 11 -5 11 -11 0
-6 -7 -8 -16 -5 -8 3 -12 2 -9 -4 3 -6 2 -10 -3 -10 -6 0 -12 -7 -16 -15 -4
-10 4 -8 26 7 22 17 32 19 35 10 3 -6 9 -10 14 -7 5 4 6 0 3 -8 -3 -8 9 -25
31 -41 39 -30 47 -68 18 -85 -10 -6 -13 -11 -6 -11 6 0 15 5 18 11 4 6 14 8
22 4 14 -5 14 -3 2 12 -13 16 -12 17 4 4 10 -8 16 -20 13 -28 -3 -8 -1 -11 5
-8 15 10 39 -14 39 -39 0 -17 2 -18 10 -6 8 13 10 12 10 -4 0 -11 3 -17 6 -13
6 6 16 -1 63 -43 15 -14 41 -36 59 -50 22 -17 30 -31 27 -45 -3 -11 -2 -14 1
-7 3 6 12 12 20 12 9 0 13 -4 10 -9 -3 -5 8 -14 24 -21 17 -7 30 -17 30 -22 0
-5 4 -7 9 -3 6 3 15 -5 22 -17 9 -19 9 -21 -2 -10 -16 15 -29 16 -29 1 0 -5 5
-7 10 -4 6 3 13 -1 16 -10 6 -14 8 -14 19 1 9 13 14 14 20 4 11 -18 -20 -39
-48 -34 -20 4 -21 4 -2 -4 22 -10 65 4 65 21 0 6 8 3 18 -6 10 -10 22 -14 27
-10 4 5 5 2 1 -4 -4 -8 -2 -13 7 -13 7 0 23 -9 35 -20 12 -11 28 -20 37 -20 8
0 15 -5 15 -11 0 -5 4 -8 9 -5 4 3 19 -3 31 -14 12 -11 26 -17 30 -15 5 3 21
-8 36 -24 21 -23 31 -27 41 -19 16 13 17 4 2 -24 -6 -11 -8 -22 -5 -25 3 -3
10 6 16 21 l10 27 39 -20 c21 -11 41 -17 45 -14 3 4 6 -1 6 -11 0 -9 5 -14 10
-11 6 4 34 -2 63 -11 28 -10 55 -19 60 -20 4 -1 10 -3 15 -4 4 -1 12 -3 17 -4
50 -11 75 -20 75 -25 0 -12 40 -10 40 2 0 7 5 4 11 -5 5 -9 16 -15 23 -12 8 3
17 1 21 -5 3 -6 0 -11 -8 -11 -8 0 -22 -10 -33 -22 -10 -12 -13 -18 -6 -14 7
4 12 2 12 -6 0 -10 2 -10 9 1 11 17 25 -3 15 -21 -5 -10 -4 -10 6 -1 11 10 11
16 -4 31 -16 19 -16 20 6 25 12 4 27 2 34 -4 7 -6 15 -6 18 -1 7 12 56 12 57
1 1 -5 3 -13 4 -19 1 -5 3 -15 4 -21 0 -7 10 0 22 15 11 14 25 24 30 20 5 -3
27 -6 49 -6 23 0 40 -5 40 -12 0 -6 4 -4 10 4 5 8 13 11 17 6 4 -4 -2 -15 -14
-23 -24 -16 -30 -33 -12 -33 5 0 7 5 4 10 -9 14 18 12 35 -3 12 -10 12 -9 2 4
-18 24 -5 51 17 39 12 -6 22 -5 29 2 8 8 10 -1 7 -33 -1 -24 -1 -38 2 -31 3 6
9 9 14 6 6 -3 5 -12 -3 -22 -12 -15 -11 -16 4 -4 16 13 16 16 2 37 -21 31 -11
44 29 40 17 -2 36 -4 41 -4 4 -1 6 -7 3 -14 -3 -8 -2 -19 2 -26 10 -16 49 -22
57 -9 4 7 2 8 -4 4 -11 -6 -16 6 -13 27 0 4 -4 7 -10 7 -6 0 -8 -9 -3 -22 6
-19 5 -21 -8 -11 -8 7 -14 22 -13 33 1 21 15 41 15 22 0 -7 7 -12 16 -12 9 0
12 5 8 13 -6 9 -5 9 7 0 8 -7 29 -10 47 -8 23 3 31 1 27 -8 -4 -7 -1 -5 7 3
14 16 88 23 88 9 0 -5 5 -9 11 -9 5 0 7 5 3 12 -4 7 -3 8 4 4 7 -4 12 -3 12 2
0 5 20 8 45 7 25 -2 43 0 40 4 -5 9 23 12 44 5 11 -3 11 -7 1 -19 -7 -8 -17
-15 -22 -15 -6 0 -4 7 3 17 13 15 12 15 -9 2 -12 -8 -18 -15 -12 -17 6 -2 8
-7 5 -12 -2 -4 5 -16 18 -26 21 -18 22 -18 5 0 -16 18 -15 20 7 38 25 20 40
24 30 8 -3 -5 -1 -10 4 -10 16 0 13 20 -4 26 -22 9 -18 21 6 19 11 -1 25 -8
30 -16 8 -10 9 -8 4 9 -7 23 9 32 18 10 4 -10 6 -10 6 0 1 7 5 11 11 7 5 -3 6
-13 3 -22 -4 -11 -3 -14 6 -9 6 4 9 16 6 27 -8 25 3 24 31 -2 16 -15 24 -17
29 -8 5 7 4 10 -2 6 -6 -4 -16 0 -22 7 -8 10 -9 16 -1 21 5 3 10 1 10 -4 0
-16 30 -13 36 3 3 8 14 16 25 19 10 3 17 2 15 -1 -2 -4 3 -20 10 -37 7 -16 13
-23 13 -15 1 8 -3 21 -8 29 -13 20 -3 40 17 36 9 -2 20 -4 25 -4 13 -2 7 -19
-9 -25 -12 -5 -15 -2 -10 11 6 15 5 16 -5 5 -11 -10 -10 -16 5 -30 11 -10 15
-11 11 -3 -6 11 -4 13 7 8 22 -8 29 2 17 25 -7 14 -6 22 6 34 8 8 15 12 15 7
0 -5 12 -10 28 -11 21 -1 23 0 12 8 -8 5 -10 10 -4 10 6 0 28 7 48 15 20 8 38
15 41 15 10 1 126 58 139 69 11 10 17 8 26 -6 10 -16 10 -16 5 3 -6 22 17 40
36 28 5 -3 9 0 9 6 0 6 5 8 10 5 6 -4 8 -11 5 -16 -3 -5 1 -6 10 -2 12 4 13 8
5 13 -7 4 -9 13 -5 20 6 10 12 8 22 -6 13 -17 14 -17 8 11 -6 27 -5 28 7 10 7
-11 13 -24 13 -29 0 -5 7 -11 15 -13 13 -4 13 -3 0 6 -8 6 -11 11 -6 11 5 0 3
7 -4 15 -11 13 -8 19 14 40 14 13 26 21 26 18 0 -3 7 0 15 7 8 7 15 9 15 4 0
-5 9 2 20 16 17 21 19 21 14 5 -3 -11 3 -5 15 12 17 28 25 32 50 27 17 -4 31
-1 36 6 5 9 1 10 -15 5 -15 -5 -21 -3 -18 5 2 6 6 10 8 8 8 -5 38 26 34 34 -3
4 7 5 20 2 14 -2 28 1 32 7 4 8 3 9 -4 5 -7 -4 -12 -2 -12 5 0 6 8 9 20 6 22
-6 28 8 8 17 -7 4 -3 4 8 2 12 -2 28 1 35 6 11 8 10 9 -3 4 -10 -3 -20 -1 -23
4 -4 6 -1 10 5 10 6 0 8 5 4 11 -5 8 -1 8 14 0 30 -16 33 -14 28 15 -3 15 -2
24 1 20 3 -3 23 13 44 35 20 22 47 42 59 44 33 6 70 39 67 58 -1 5 9 15 23 23
23 14 23 14 3 9 -14 -4 -23 -2 -23 4 0 6 5 11 10 11 6 0 10 7 10 15 0 8 4 15
9 15 6 0 18 13 28 30 19 33 43 40 44 13 0 -12 2 -13 6 -5 3 7 0 19 -6 26 -9
11 -8 18 3 29 8 8 14 16 13 19 -1 2 6 -5 16 -15 9 -11 17 -14 17 -9 0 6 -4 13
-9 17 -6 3 -9 14 -8 25 1 10 5 16 9 14 4 -3 8 3 8 13 0 15 2 16 11 3 9 -12 10
-11 6 7 -4 16 4 32 26 54 18 18 25 29 17 25 -8 -4 -4 2 10 14 14 12 19 18 11
14 -10 -5 -12 -3 -6 6 6 10 11 9 23 -6 15 -20 15 -15 -4 31 -5 11 -2 13 10 9
12 -5 15 -2 10 10 -5 13 -2 15 12 9 16 -6 17 -4 6 9 -10 12 -10 21 -1 42 7 14
17 26 22 26 5 0 4 -7 -3 -15 -9 -10 -9 -15 -1 -15 6 0 11 5 11 11 0 5 6 7 13
3 8 -6 8 -3 -2 9 -8 10 -10 24 -6 34 5 10 7 21 7 26 -1 4 3 7 9 7 6 0 9 9 6
20 -4 15 0 20 16 21 12 0 16 3 10 6 -21 8 -15 22 7 16 11 -3 20 -9 20 -14 0
-5 4 -9 8 -9 5 0 9 7 9 15 0 8 -2 13 -5 10 -7 -7 -42 15 -42 27 0 7 5 6 15 -2
8 -6 19 -9 24 -6 5 4 14 -2 20 -11 9 -16 10 -16 8 4 0 12 -3 20 -6 18 -2 -3
-10 3 -18 13 -14 16 -14 16 -9 -1 3 -9 1 -17 -3 -17 -13 0 -21 29 -10 35 5 4
6 12 2 18 -3 7 4 3 16 -8 14 -12 21 -14 19 -6 -2 7 2 15 9 18 7 3 10 -3 6 -15
-2 -11 -1 -22 4 -25 10 -6 10 39 0 49 -4 4 -13 2 -21 -5 -21 -18 -29 14 -11
48 8 16 11 31 8 35 -4 3 -1 6 5 6 7 0 12 7 12 16 0 9 5 12 13 8 6 -4 4 2 -6
13 -16 19 -16 21 2 37 11 10 17 24 14 33 -3 8 3 21 16 29 11 8 21 20 21 26 0
7 -7 3 -15 -8 -13 -18 -14 -17 -8 11 3 17 6 40 6 53 1 16 5 21 17 17 29 -12
35 -10 33 13 -2 13 1 21 7 17 5 -3 18 -2 27 4 15 8 12 9 -12 7 -24 -3 -30 -8
-28 -25 3 -25 -1 -26 -21 -6 -15 15 -11 50 4 40 5 -3 11 -1 15 4 3 6 12 8 20
4 8 -3 15 0 15 6 0 6 -3 11 -7 10 -5 -1 -18 2 -30 6 -25 8 -31 25 -9 25 7 0
20 7 27 17 13 15 12 15 -7 5 -19 -10 -21 -8 -21 24 0 40 3 41 28 12 23 -26 25
-16 3 17 -9 14 -21 22 -26 19 -6 -4 -7 0 -1 12 11 23 11 34 -1 53 -6 10 -5 12
2 7 11 -6 18 28 13 57 -1 5 4 5 11 1 10 -6 10 -4 2 7 -13 18 -16 57 -3 64 5 4
9 12 9 18 0 7 -4 6 -11 -3 -8 -12 -9 -10 -4 7 3 12 1 24 -5 28 -6 3 -7 12 -3
18 11 18 12 56 2 63 -5 3 -6 11 -2 17 11 18 12 37 2 37 -5 0 -9 5 -9 11 0 5 4
7 10 4 5 -3 19 -1 30 5 19 10 19 12 4 41 -8 17 -18 29 -21 26 -2 -3 3 -16 12
-30 14 -23 14 -25 -1 -31 -17 -7 -34 0 -34 14 0 5 8 7 18 4 15 -5 15 -4 2 8
-8 7 -16 24 -18 38 -2 14 -5 41 -7 60 -2 19 -4 35 -6 35 -1 0 -3 16 -4 35 -1
21 -7 34 -14 32 -8 -1 -6 8 4 28 15 29 37 42 33 18 -2 -6 5 -14 15 -16 9 -2
17 1 17 7 0 6 -8 7 -17 4 -15 -6 -16 -4 -6 8 10 12 8 15 -7 16 -11 1 -22 -2
-25 -8 -9 -13 -22 -11 -28 5 -4 11 -1 13 10 9 13 -5 14 -3 2 18 -7 13 -13 27
-14 31 0 3 -3 10 -7 14 -13 13 -9 36 5 28 6 -4 4 2 -6 13 -18 21 -18 21 4 25
23 3 40 28 19 28 -6 0 -8 -4 -5 -10 4 -6 -5 -10 -19 -10 -16 0 -26 6 -26 14 0
8 7 13 16 12 9 0 19 6 21 14 4 12 3 12 -5 1 -7 -10 -14 -11 -28 -2 -11 6 -16
11 -11 11 4 0 1 14 -8 30 -9 17 -13 30 -9 30 4 0 1 7 -6 15 -7 8 -9 15 -5 15
4 0 1 8 -6 17 -10 11 -10 14 -1 9 6 -4 12 -2 12 3 0 6 -8 11 -17 11 -15 0 -16
2 -3 10 8 5 10 10 4 10 -6 0 -18 16 -27 35 -15 31 -15 36 -2 41 8 4 12 10 9
15 -5 8 10 13 29 10 5 -1 6 3 2 9 -8 12 -41 -3 -48 -22 -2 -7 -8 -10 -12 -6
-4 4 -4 13 2 20 13 17 14 60 2 52 -5 -3 -7 -14 -4 -25 4 -10 4 -19 1 -19 -10
0 -35 57 -29 64 4 3 -2 6 -11 6 -15 0 -13 6 11 34 15 18 33 31 38 28 6 -3 6
-1 2 3 -13 15 -36 14 -30 -1 3 -10 0 -12 -10 -8 -8 3 -18 1 -22 -5 -4 -7 1 -8
12 -4 16 6 16 5 4 -10 -13 -16 -15 -15 -33 14 -11 17 -17 37 -14 45 3 8 0 11
-10 7 -8 -3 -14 1 -14 11 0 9 6 13 14 10 18 -7 41 32 26 41 -6 4 -8 10 -5 15
3 5 2 11 -3 14 -4 2 -9 -4 -9 -15 -1 -10 2 -19 7 -19 5 0 7 -6 5 -12 -6 -16
-55 -20 -55 -5 0 6 -8 19 -17 30 -10 11 -12 17 -5 13 6 -4 12 -2 12 3 0 6 -6
11 -14 11 -8 0 -16 7 -20 15 -3 8 -7 18 -8 22 -2 4 -15 20 -30 36 -15 18 -24
36 -20 45 4 12 1 14 -12 9 -12 -5 -16 -3 -13 5 2 7 -5 21 -16 31 -20 17 -20
18 -2 35 17 16 18 16 12 0 -4 -10 -3 -18 2 -18 5 0 11 9 14 19 5 21 -15 23
-35 3 -23 -23 -31 -12 -9 12 22 24 21 53 -1 40 -8 -5 -9 -1 -5 10 5 11 3 15
-5 10 -7 -5 -9 -2 -6 8 5 11 0 15 -15 13 -31 -3 -31 -3 -18 -18 6 -8 7 -18 3
-23 -4 -4 0 -3 9 4 14 10 18 10 23 -3 3 -9 10 -13 16 -10 5 3 10 2 10 -4 0
-15 -18 -23 -25 -11 -3 5 -11 10 -18 10 -6 0 -2 -7 9 -15 10 -8 15 -14 9 -15
-17 0 -32 14 -39 38 -4 12 -11 20 -16 17 -11 -7 -70 68 -71 91 0 11 -3 14 -5
7 -3 -7 -14 -2 -30 13 -27 28 -30 36 -11 28 7 -2 21 4 31 15 18 20 18 20 -3
16 -12 -2 -25 3 -32 13 -9 15 -10 15 -5 0 2 -9 -2 -24 -10 -35 -8 -10 -13 -12
-12 -5 2 8 -6 19 -16 25 -46 28 -60 46 -46 62 11 13 15 12 32 -10 11 -14 25
-25 31 -25 7 0 4 5 -6 11 -15 9 -16 13 -5 27 12 16 11 16 -6 2 -18 -14 -19
-13 -13 3 5 12 3 16 -5 11 -7 -5 -9 -2 -6 8 5 11 0 15 -15 13 -31 -3 -31 -3
-18 -19 9 -10 8 -15 -1 -18 -17 -7 -39 2 -33 12 3 5 -4 11 -15 15 -11 3 -20
11 -20 16 0 6 5 7 10 4 6 -3 10 -1 10 4 0 14 -13 14 -28 -1 -9 -9 -12 -9 -12
1 0 7 -5 9 -12 5 -7 -4 -10 -4 -6 1 4 4 3 14 -3 22 -9 9 -8 13 0 13 6 0 14 -7
17 -15 4 -8 10 -12 16 -9 5 3 0 13 -12 21 -15 11 -24 12 -34 4 -10 -9 -15 -8
-20 4 -3 9 -10 14 -14 11 -5 -3 -28 13 -52 34 -24 21 -47 37 -52 34 -4 -3 -8
-1 -8 5 0 5 5 13 10 16 6 3 10 1 10 -5 0 -6 5 -8 11 -5 13 9 6 16 -17 19 -10
2 -20 9 -22 16 -3 8 0 10 8 5 9 -6 11 -4 5 5 -6 10 -12 7 -25 -10 l-17 -23
-32 22 c-32 23 -38 31 -21 31 5 0 18 -10 30 -22 11 -12 20 -17 20 -10 0 19
-49 47 -61 35 -13 -13 -61 7 -55 23 3 7 -5 9 -20 6 -15 -3 -24 0 -24 8 0 7 7
10 16 6 8 -3 12 -2 9 3 -3 5 -18 8 -33 7 -15 -2 -29 0 -32 5 -3 5 -16 10 -29
12 -12 2 -26 9 -31 17 -4 7 -13 9 -19 6 -7 -5 -10 1 -8 16 1 18 -3 23 -23 25
-22 1 -22 1 -2 -4 25 -5 29 -18 7 -27 -8 -3 -15 -1 -15 5 0 6 -4 7 -10 4 -5
-3 -10 -1 -10 5 0 6 -4 8 -10 5 -5 -3 -10 -2 -10 4 0 5 6 11 13 14 6 2 8 8 4
13 -5 5 -13 1 -18 -9 -6 -9 -16 -17 -23 -17 -17 0 -29 27 -16 35 6 4 10 -2 10
-11 0 -10 3 -15 6 -11 3 3 3 15 -1 27 -6 20 -7 20 -20 3 -7 -10 -11 -22 -8
-28 3 -5 0 -5 -7 2 -7 6 -19 9 -26 6 -8 -3 -14 -1 -14 4 0 5 -8 9 -17 10 -36
3 -72 12 -91 22 -11 6 -28 8 -36 5 -9 -3 -16 -1 -16 4 0 6 -9 9 -20 7 -11 -2
-26 3 -34 11 -10 9 -17 11 -21 4 -5 -8 -11 -8 -20 0 -7 6 -19 8 -26 5 -18 -6
-30 3 -52 38 -10 15 -22 27 -27 27 -6 0 -1 -9 10 -20 19 -19 27 -40 14 -40
-12 0 -33 28 -26 36 4 4 -10 -2 -30 -15 -20 -12 -39 -18 -42 -13 -5 9 -44 13
-123 15 -24 0 -43 5 -43 10 0 5 -7 4 -15 -3 -8 -7 -15 -9 -15 -6 0 4 -9 2 -20
-4 -15 -8 -20 -8 -18 1 2 6 -3 14 -11 17 -8 2 -11 0 -8 -5 3 -5 -9 -9 -29 -9
-24 1 -33 5 -29 14 3 8 5 16 5 19 0 3 7 0 14 -7 11 -9 19 -9 33 0 15 9 14 10
-7 4 -22 -6 -23 -5 -11 10 9 10 10 16 2 16 -6 0 -11 -4 -11 -10z m355 -60 c3
-5 2 -10 -4 -10 -5 0 -13 5 -16 10 -3 6 -2 10 4 10 5 0 13 -4 16 -10z m-920
-71 c4 -6 4 -13 0 -17 -3 -3 -10 0 -15 8 -8 13 -10 12 -10 -3 0 -10 -5 -15
-10 -12 -8 5 -7 11 1 21 14 17 25 18 34 3z m-397 -174 c2 -9 0 -15 -5 -12 -5
3 -17 -3 -27 -15 -15 -17 -20 -18 -27 -7 -6 10 -1 18 17 27 13 7 22 18 18 24
-4 6 -1 9 7 6 8 -3 16 -13 17 -23z m2177 -44 c3 -5 1 -12 -5 -16 -5 -3 -10 1
-10 9 0 18 6 21 15 7z m295 -181 c0 -5 -2 -10 -4 -10 -3 0 -8 5 -11 10 -3 6
-1 10 4 10 6 0 11 -4 11 -10z m-2891 -93 c-2 -1 -14 -11 -26 -21 -13 -11 -23
-16 -23 -13 0 10 31 37 42 37 6 0 9 -1 7 -3z m2995 -9 c-3 -4 -9 -8 -15 -8 -5
0 -9 4 -9 8 0 5 7 9 15 9 8 0 12 -4 9 -9z m136 -138 c0 -5 -2 -10 -4 -10 -3 0
-8 5 -11 10 -3 6 -1 10 4 10 6 0 11 -4 11 -10z m-3420 -130 c0 -5 -7 -10 -16
-10 -8 0 -12 5 -9 10 3 6 10 10 16 10 5 0 9 -4 9 -10z m-107 -186 c12 -13 -6
-34 -31 -34 -24 0 -25 0 -7 20 19 21 28 24 38 14z m-256 -643 c-1 -11 -9 -22
-19 -24 -22 -6 -23 1 -1 25 20 23 22 23 20 -1z m-47 -327 c0 -8 -4 -12 -10 -9
-5 3 -10 10 -10 16 0 5 5 9 10 9 6 0 10 -7 10 -16z m4330 -548 c0 -11 -19 -15
-25 -6 -3 5 1 10 9 10 9 0 16 -2 16 -4z m-524 -1081 c-2 -17 -56 -68 -63 -61
-3 3 2 12 11 21 9 9 16 21 16 27 0 5 7 8 14 5 10 -4 13 -1 9 9 -3 7 -1 14 5
14 6 0 9 -7 8 -15z m-2552 -541 c3 -8 2 -12 -4 -9 -6 3 -10 10 -10 16 0 14 7
11 14 -7z m506 -166 c0 -6 -6 -5 -15 2 -8 7 -15 14 -15 16 0 2 7 1 15 -2 8 -4
15 -11 15 -16z m100 -13 c0 -1 -6 -7 -13 -13 -10 -8 -13 -6 -13 7 0 11 6 17
13 14 7 -3 13 -6 13 -8z"/>
<path d="M2454 4608 c-7 -11 5 -28 19 -27 9 0 9 2 0 6 -20 7 -15 19 7 20 13 1
18 -2 14 -9 -4 -7 -2 -8 5 -4 6 4 9 11 6 16 -6 10 -45 9 -51 -2z"/>
<path d="M2550 4610 c0 -5 5 -10 10 -10 6 0 10 5 10 10 0 6 -4 10 -10 10 -5 0
-10 -4 -10 -10z"/>
<path d="M2690 4616 c0 -2 7 -7 16 -10 8 -3 12 -2 9 4 -6 10 -25 14 -25 6z"/>
<path d="M1940 4607 c0 -17 21 -47 31 -42 5 4 9 2 9 -4 0 -5 -5 -12 -10 -14
-6 -3 -5 -4 2 -3 7 2 13 8 13 14 0 7 -4 11 -8 10 -5 -2 -15 8 -22 22 -8 14
-14 21 -15 17z"/>
<path d="M2386 4594 c-10 -7 -23 -11 -29 -7 -6 3 -7 1 -3 -6 6 -9 14 -8 31 3
22 15 25 14 34 -2 6 -9 11 -12 11 -6 0 23 -24 33 -44 18z"/>
<path d="M2520 4591 c0 -5 8 -15 18 -22 15 -12 16 -12 5 2 -7 9 -10 19 -6 22
3 4 1 7 -5 7 -7 0 -12 -4 -12 -9z"/>
<path d="M2575 4589 c-11 -16 -1 -19 13 -3 7 8 8 14 3 14 -5 0 -13 -5 -16 -11z"/>
<path d="M2691 4589 c-1 -9 9 -24 21 -35 16 -13 19 -14 10 -2 -11 14 -9 19 10
32 12 9 17 16 11 16 -6 0 -17 -7 -24 -16 -12 -14 -14 -14 -20 3 -6 14 -8 15
-8 2z"/>
<path d="M2775 4590 c-3 -5 -1 -10 4 -10 6 0 11 5 11 10 0 6 -2 10 -4 10 -3 0
-8 -4 -11 -10z"/>
<path d="M1920 4581 c0 -7 -4 -10 -9 -6 -5 3 -13 0 -17 -6 -4 -8 -3 -9 4 -5 7
4 12 1 12 -6 0 -8 5 -6 11 5 6 10 8 21 5 24 -3 4 -6 1 -6 -6z"/>
<path d="M2150 4567 c-10 -19 -9 -20 2 -6 7 9 19 14 26 12 17 -6 15 4 -3 11
-9 3 -19 -3 -25 -17z"/>
<path d="M1755 4571 c-3 -5 -2 -12 3 -15 5 -3 9 1 9 9 0 17 -3 19 -12 6z"/>
<path d="M1845 4569 c-4 -6 -5 -12 -2 -15 2 -3 7 2 10 11 7 17 1 20 -8 4z"/>
<path d="M2036 4565 c-11 -8 -18 -17 -15 -19 2 -3 15 4 29 14 14 11 21 20 15
19 -5 0 -19 -6 -29 -14z"/>
<path d="M2587 4566 c-4 -10 -1 -13 8 -9 8 3 12 9 9 14 -7 12 -11 11 -17 -5z"/>
<path d="M2736 4571 c-7 -10 22 -37 30 -28 9 8 -3 37 -15 37 -5 0 -12 -4 -15
-9z m24 -11 c0 -5 -2 -10 -4 -10 -3 0 -8 5 -11 10 -3 6 -1 10 4 10 6 0 11 -4
11 -10z"/>
<path d="M2795 4569 c-11 -16 -1 -19 13 -3 7 8 8 14 3 14 -5 0 -13 -5 -16 -11z"/>
<path d="M2867 4564 c2 -7 11 -10 19 -7 19 7 18 10 -5 16 -13 3 -18 1 -14 -9z"/>
<path d="M2953 4575 c7 -14 -19 -49 -28 -36 -3 6 -3 17 1 24 6 10 4 10 -7 0
-10 -10 -10 -16 -1 -25 9 -9 9 -15 -1 -27 -8 -10 -8 -13 0 -8 6 4 14 1 17 -5
4 -9 5 -8 4 2 -2 22 13 51 22 45 11 -7 6 22 -5 32 -4 4 -6 3 -2 -2z"/>
<path d="M1793 4555 c0 -8 4 -12 8 -9 4 2 9 -1 11 -8 3 -7 7 -5 11 6 4 10 3
15 -3 11 -6 -3 -10 -1 -10 4 0 6 -4 11 -8 11 -5 0 -9 -7 -9 -15z"/>
<path d="M1870 4558 c0 -9 -6 -18 -12 -21 -7 -2 -11 -7 -8 -10 3 -3 13 0 22 7
11 8 14 17 7 27 -7 12 -9 11 -9 -3z"/>
<path d="M1930 4550 c0 -5 5 -10 10 -10 6 0 10 5 10 10 0 6 -4 10 -10 10 -5 0
-10 -4 -10 -10z"/>
<path d="M2807 4545 c-4 -8 -1 -17 6 -21 7 -4 9 -4 5 1 -4 4 -3 14 3 22 7 8 8
13 1 13 -5 0 -12 -7 -15 -15z"/>
<path d="M2840 4545 c-7 -9 -11 -17 -9 -20 3 -2 10 5 17 15 14 24 10 26 -8 5z"/>
<path d="M1735 4540 c6 -10 4 -12 -11 -6 -15 6 -17 5 -6 -5 9 -9 15 -10 23 -2
8 8 7 13 -2 18 -8 6 -10 4 -4 -5z"/>
<path d="M1655 4530 c-3 -5 -1 -10 4 -10 6 0 11 5 11 10 0 6 -2 10 -4 10 -3 0
-8 -4 -11 -10z"/>
<path d="M2855 4530 c-3 -5 -1 -10 4 -10 6 0 11 5 11 10 0 6 -2 10 -4 10 -3 0
-8 -4 -11 -10z"/>
<path d="M2888 4533 c6 -2 9 -10 6 -15 -4 -7 -2 -8 5 -4 13 9 5 26 -12 25 -9
0 -8 -2 1 -6z"/>
<path d="M2973 4523 c-3 -7 -8 -11 -12 -8 -4 2 -8 -2 -8 -9 0 -8 6 -12 14 -9
7 3 13 12 13 20 0 8 4 12 8 9 4 -2 14 -1 22 4 11 7 9 9 -9 7 -13 -1 -26 -7
-28 -14z"/>
<path d="M3030 4521 c0 -10 19 -25 25 -20 1 2 -3 10 -11 17 -8 7 -14 8 -14 3z"/>
<path d="M3085 4506 c20 -30 27 -34 18 -9 -5 12 -3 14 8 8 8 -5 11 -5 6 1 -5
5 -12 9 -15 9 -4 0 -13 4 -21 9 -8 5 -7 -1 4 -18z"/>
<path d="M1685 4510 c-3 -6 1 -7 9 -4 18 7 21 14 7 14 -6 0 -13 -4 -16 -10z"/>
<path d="M1820 4509 c0 -5 5 -7 10 -4 6 3 10 8 10 11 0 2 -4 4 -10 4 -5 0 -10
-5 -10 -11z"/>
<path d="M3000 4505 c-7 -9 -10 -18 -6 -22 3 -3 6 -1 6 7 0 10 3 10 15 0 10
-9 15 -9 15 -1 0 6 -5 11 -11 11 -5 0 -7 5 -4 10 10 15 -1 12 -15 -5z"/>
<path d="M1615 4501 c-3 -5 0 -13 6 -17 8 -5 9 -3 4 6 -6 10 -4 12 9 7 10 -4
15 -3 11 3 -8 13 -22 13 -30 1z"/>
<path d="M1556 4492 c-3 -5 1 -9 9 -9 8 0 12 4 9 9 -3 4 -7 8 -9 8 -2 0 -6 -4
-9 -8z"/>
<path d="M1590 4491 c0 -6 4 -13 10 -16 6 -3 7 1 4 9 -7 18 -14 21 -14 7z"/>
<path d="M3130 4489 c0 -5 5 -7 10 -4 6 3 10 8 10 11 0 2 -4 4 -10 4 -5 0 -10
-5 -10 -11z"/>
<path d="M3173 4485 c-3 -9 -3 -18 -1 -21 3 -3 8 4 11 16 6 23 -1 27 -10 5z"/>
<path d="M1508 4463 c6 -2 9 -10 6 -15 -4 -7 -2 -8 5 -4 13 9 5 26 -12 25 -9
0 -8 -2 1 -6z"/>
<path d="M1552 4461 c-11 -7 -10 -9 3 -14 9 -4 14 -3 10 2 -3 5 1 12 7 14 7 3
9 6 3 6 -5 0 -16 -3 -23 -8z"/>
<path d="M1586 4445 c-9 -26 -7 -32 5 -11 9 15 13 16 21 5 8 -12 9 -12 6 0 -6
21 -25 24 -32 6z"/>
<path d="M3220 4455 c0 -8 29 -12 39 -5 9 5 4 8 -13 8 -14 0 -26 -2 -26 -3z"/>
<path d="M1465 4430 c-3 -5 -1 -10 4 -10 6 0 11 5 11 10 0 6 -2 10 -4 10 -3 0
-8 -4 -11 -10z"/>
<path d="M1526 4431 c-3 -5 6 -8 20 -8 19 0 22 2 13 8 -18 11 -26 11 -33 0z"/>
<path d="M3205 4430 c-3 -5 -2 -10 4 -10 5 0 13 5 16 10 3 6 2 10 -4 10 -5 0
-13 -4 -16 -10z"/>
<path d="M3299 4433 c-1 -5 -1 -12 0 -17 1 -5 -5 -6 -14 -2 -9 3 -13 2 -10 -4
3 -6 1 -10 -6 -10 -7 0 -10 -3 -6 -6 9 -9 40 12 43 30 1 9 0 16 -2 16 -2 0 -5
-3 -5 -7z"/>
<path d="M1430 4410 c0 -5 5 -10 10 -10 6 0 10 5 10 10 0 6 -4 10 -10 10 -5 0
-10 -4 -10 -10z"/>
<path d="M3227 4407 c-3 -8 1 -14 8 -14 7 0 11 6 8 14 -3 7 -6 13 -8 13 -2 0
-5 -6 -8 -13z"/>
<path d="M3354 4389 c-2 -33 4 -33 11 -1 2 12 1 24 -3 26 -4 2 -8 -9 -8 -25z"/>
<path d="M1370 4395 c0 -8 29 -12 39 -5 9 5 4 8 -13 8 -14 0 -26 -2 -26 -3z"/>
<path d="M1455 4389 c-4 -6 -4 -13 -1 -16 3 -4 6 -1 6 5 0 6 8 13 18 15 15 4
15 5 0 6 -9 0 -20 -4 -23 -10z"/>
<path d="M3301 4390 c-9 -5 -4 -7 13 -7 29 0 32 2 13 10 -8 3 -20 2 -26 -3z"/>
<path d="M1362 4374 c9 -3 15 -11 12 -19 -3 -7 -1 -15 4 -19 5 -3 8 5 7 17 -1
14 -9 23 -21 24 -15 1 -15 1 -2 -3z"/>
<path d="M3375 4372 c-9 -9 -5 -41 5 -47 7 -4 8 3 4 21 -5 18 -3 25 4 20 6 -3
13 -3 16 2 5 9 -20 12 -29 4z"/>
<path d="M3412 4359 c-7 -12 -11 -24 -8 -27 3 -3 6 0 6 8 0 10 3 10 14 1 10
-8 16 -9 21 -1 4 6 1 9 -7 8 -8 -2 -12 4 -10 15 4 22 0 22 -16 -4z"/>
<path d="M1273 4343 c0 -9 4 -10 14 -2 7 6 13 12 13 14 0 1 -6 2 -13 2 -8 0
-14 -6 -14 -14z"/>
<path d="M1330 4350 c0 -5 5 -10 10 -10 6 0 10 5 10 10 0 6 -4 10 -10 10 -5 0
-10 -4 -10 -10z"/>
<path d="M3454 4328 c-4 -7 -3 -8 4 -4 7 4 12 1 12 -8 0 -9 5 -16 10 -16 7 0
7 6 0 20 -12 23 -16 24 -26 8z"/>
<path d="M1215 4312 c3 -28 16 -52 28 -52 6 0 4 8 -6 17 -16 16 -15 18 11 30
15 7 19 11 8 8 -10 -3 -24 -1 -31 5 -8 7 -11 5 -10 -8z"/>
<path d="M1190 4294 c0 -13 18 -39 24 -34 2 3 -2 14 -10 24 -8 11 -14 16 -14
10z"/>
<path d="M3530 4289 c0 -5 5 -7 10 -4 6 3 10 8 10 11 0 2 -4 4 -10 4 -5 0 -10
-5 -10 -11z"/>
<path d="M1133 4264 c0 -7 6 -10 14 -7 7 3 13 8 13 12 0 4 -6 8 -13 8 -8 0
-14 -6 -14 -13z"/>
<path d="M3556 4268 c3 -4 9 -8 15 -8 5 0 9 4 9 8 0 5 -7 9 -15 9 -8 0 -12 -4
-9 -9z"/>
<path d="M3593 4259 c-2 -23 3 -25 10 -4 4 8 3 16 -1 19 -4 3 -9 -4 -9 -15z"/>
<path d="M3615 4240 c3 -4 14 -10 25 -13 11 -3 18 -2 15 3 -3 4 -14 10 -25 13
-11 3 -18 2 -15 -3z"/>
<path d="M3563 4234 c9 -3 15 -10 12 -15 -4 -5 -1 -9 5 -9 19 0 5 25 -16 27
-16 2 -16 1 -1 -3z"/>
<path d="M3670 4230 c0 -5 5 -10 11 -10 5 0 7 5 4 10 -3 6 -8 10 -11 10 -2 0
-4 -4 -4 -10z"/>
<path d="M1116 4203 c-6 -14 -5 -15 5 -6 7 7 10 15 7 18 -3 3 -9 -2 -12 -12z"/>
<path d="M3614 4206 c-3 -9 -10 -13 -15 -10 -16 10 -9 -3 9 -17 9 -7 14 -9 10
-5 -4 5 -3 15 4 23 6 7 8 16 5 20 -4 3 -9 -2 -13 -11z"/>
<path d="M1037 4203 c-4 -3 -7 -11 -7 -17 0 -6 5 -5 12 2 6 6 9 14 7 17 -3 3
-9 2 -12 -2z"/>
<path d="M3638 4199 c-10 -27 6 -40 21 -18 7 12 8 18 3 15 -6 -3 -12 -1 -14 6
-3 8 -6 7 -10 -3z"/>
<path d="M3700 4182 c0 -6 -8 -9 -17 -6 -15 5 -16 4 -3 -5 16 -11 40 3 27 16
-4 3 -7 1 -7 -5z"/>
<path d="M992 4172 c1 -4 -3 -18 -10 -32 -12 -23 -12 -23 8 3 12 15 27 24 33
20 7 -3 8 -2 4 2 -9 11 -37 16 -35 7z"/>
<path d="M1031 4150 c-9 -5 -4 -7 13 -7 29 0 32 2 13 10 -8 3 -20 2 -26 -3z"/>
<path d="M3716 4145 c4 -8 8 -15 10 -15 2 0 4 7 4 15 0 8 -4 15 -10 15 -5 0
-7 -7 -4 -15z"/>
<path d="M3752 4134 c-7 -8 -8 -14 -3 -14 10 0 25 19 20 25 -2 1 -10 -3 -17
-11z"/>
<path d="M996 4123 c-6 -14 -5 -15 5 -6 7 7 10 15 7 18 -3 3 -9 -2 -12 -12z"/>
<path d="M3756 4105 c-11 -8 -15 -15 -9 -15 6 0 16 7 23 15 16 19 11 19 -14 0z"/>
<path d="M3835 4100 c10 -11 20 -20 23 -20 3 0 -3 9 -13 20 -10 11 -20 20 -23
20 -3 0 3 -9 13 -20z"/>
<path d="M956 4094 c-18 -17 -21 -40 -7 -48 5 -4 7 3 4 14 -3 11 -1 20 5 20 5
0 12 7 16 15 7 19 1 19 -18 -1z"/>
<path d="M873 4085 c0 -8 4 -12 9 -9 5 3 6 10 3 15 -9 13 -12 11 -12 -6z"/>
<path d="M908 4083 c7 -3 16 -2 19 1 4 3 -2 6 -13 5 -11 0 -14 -3 -6 -6z"/>
<path d="M908 4053 c7 -3 16 -2 19 1 4 3 -2 6 -13 5 -11 0 -14 -3 -6 -6z"/>
<path d="M3854 4048 c-4 -6 -3 -8 4 -4 5 3 13 0 15 -6 4 -10 6 -10 6 -1 1 7 8
10 19 6 9 -3 14 -3 11 1 -11 12 -48 15 -55 4z"/>
<path d="M873 4021 c8 -9 12 -10 15 -2 2 6 8 9 13 5 5 -3 9 -1 9 4 0 6 -11 9
-24 8 -19 -1 -22 -4 -13 -15z"/>
<path d="M3791 4037 c2 -1 13 -9 24 -17 19 -14 19 -14 6 3 -7 9 -18 17 -24 17
-6 0 -8 -1 -6 -3z"/>
<path d="M3895 4020 c-3 -6 1 -7 9 -4 18 7 21 14 7 14 -6 0 -13 -4 -16 -10z"/>
<path d="M813 4008 c3 -9 1 -19 -6 -22 -9 -3 -9 -5 0 -5 18 -1 23 13 11 29 -8
12 -9 12 -5 -2z"/>
<path d="M843 4011 c17 -6 17 -8 3 -20 -9 -7 -16 -18 -16 -23 0 -6 9 0 19 13
21 26 19 39 -7 38 -15 0 -15 -1 1 -8z"/>
<path d="M3935 3981 c-3 -12 -11 -21 -16 -21 -5 0 -9 -4 -9 -8 0 -11 39 -13
45 -1 3 5 -1 6 -11 2 -14 -5 -15 -3 -4 16 6 13 9 25 7 28 -3 2 -8 -5 -12 -16z"/>
<path d="M802 3953 c11 -3 15 -10 11 -21 -5 -13 -3 -14 7 -5 15 14 5 33 -18
32 -16 -1 -16 -2 0 -6z"/>
<path d="M734 3929 c-4 -7 -3 -9 4 -5 5 3 13 0 15 -6 4 -9 6 -10 6 -1 1 17
-16 25 -25 12z"/>
<path d="M776 3931 c-3 -4 1 -17 10 -27 14 -18 15 -18 5 3 -8 16 -8 23 2 26 9
4 9 6 0 6 -6 1 -14 -3 -17 -8z"/>
<path d="M3952 3928 c-17 -17 -15 -33 5 -49 15 -13 15 -12 2 9 -13 21 -12 25
5 38 11 8 15 14 10 14 -6 0 -15 -5 -22 -12z"/>
<path d="M4005 3910 c-10 -11 -14 -20 -9 -20 5 0 15 9 22 20 7 11 11 20 9 20
-2 0 -12 -9 -22 -20z"/>
<path d="M706 3912 c-3 -4 4 -9 15 -9 23 -2 25 3 4 10 -8 4 -16 3 -19 -1z"/>
<path d="M3970 3905 c0 -8 2 -15 4 -15 2 0 6 7 10 15 3 8 1 15 -4 15 -6 0 -10
-7 -10 -15z"/>
<path d="M750 3890 c0 -5 5 -10 10 -10 6 0 10 5 10 10 0 6 -4 10 -10 10 -5 0
-10 -4 -10 -10z"/>
<path d="M716 3872 c-2 -4 0 -14 6 -22 8 -12 9 -11 4 3 -5 15 -2 17 17 12 17
-5 19 -4 7 4 -18 13 -27 14 -34 3z"/>
<path d="M3980 3875 c0 -8 29 -12 39 -5 9 5 4 8 -13 8 -14 0 -26 -2 -26 -3z"/>
<path d="M675 3849 c-19 -9 -19 -9 2 -5 25 4 39 -29 21 -53 -10 -14 -10 -14 5
0 14 12 16 21 8 42 -6 15 -12 27 -13 26 -2 0 -12 -5 -23 -10z"/>
<path d="M3970 3856 c0 -2 7 -9 15 -16 13 -11 14 -10 9 4 -5 14 -24 23 -24 12z"/>
<path d="M660 3816 c0 -2 7 -6 15 -10 8 -3 15 -1 15 4 0 6 -7 10 -15 10 -8 0
-15 -2 -15 -4z"/>
<path d="M4130 3756 c0 -8 4 -17 9 -20 5 -4 7 3 4 14 -6 23 -13 26 -13 6z"/>
<path d="M586 3752 c-2 -4 4 -8 14 -8 10 0 16 4 14 8 -3 4 -9 8 -14 8 -5 0
-11 -4 -14 -8z"/>
<path d="M630 3741 c0 -6 4 -13 10 -16 6 -3 7 1 4 9 -7 18 -14 21 -14 7z"/>
<path d="M4170 3730 c-9 -6 -10 -10 -3 -10 6 0 15 5 18 10 8 12 4 12 -15 0z"/>
<path d="M4110 3723 c8 -3 18 -11 22 -17 4 -6 10 -7 15 -3 9 10 -16 27 -37 26
-13 -1 -13 -1 0 -6z"/>
<path d="M4144 3678 l-19 -23 25 20 c14 11 27 21 29 22 2 2 0 3 -6 3 -5 0 -18
-10 -29 -22z"/>
<path d="M548 3684 c6 -3 9 -11 5 -17 -5 -8 -2 -8 8 0 10 8 19 9 27 3 9 -7 9
-7 2 2 -5 6 -20 13 -32 14 -13 2 -17 0 -10 -2z"/>
<path d="M4160 3664 c-11 -12 -10 -18 3 -32 10 -9 17 -11 17 -5 0 6 -6 13 -12
16 -9 3 -7 10 7 21 11 8 15 16 9 16 -6 0 -17 -7 -24 -16z"/>
<path d="M4195 3659 c-4 -6 -5 -12 -2 -15 2 -3 7 2 10 11 7 17 1 20 -8 4z"/>
<path d="M524 3645 c-4 -8 -10 -12 -15 -9 -5 3 -6 -2 -2 -12 5 -14 7 -14 18 5
6 12 15 18 20 14 4 -4 5 -2 1 5 -9 16 -15 15 -22 -3z"/>
<path d="M562 3640 c-9 -14 -9 -21 0 -26 6 -4 8 -3 4 4 -3 6 1 15 10 20 9 5
12 12 7 15 -5 3 -14 -3 -21 -13z"/>
<path d="M4193 3607 c0 -15 3 -30 8 -33 5 -3 6 1 3 9 -3 8 -1 18 5 22 7 3 11
-3 12 -17 1 -20 2 -21 6 -3 3 11 10 23 17 28 6 4 -1 5 -16 3 -15 -3 -29 1 -31
7 -2 7 -4 0 -4 -16z"/>
<path d="M490 3590 c0 -5 5 -10 10 -10 6 0 10 5 10 10 0 6 -4 10 -10 10 -5 0
-10 -4 -10 -10z"/>
<path d="M528 3583 c6 -2 9 -10 6 -15 -4 -7 -2 -8 5 -4 13 9 5 26 -12 25 -9 0
-8 -2 1 -6z"/>
<path d="M454 3568 c-4 -7 -3 -8 4 -4 7 4 12 2 12 -3 0 -6 5 -11 10 -11 15 0
12 17 -5 23 -8 4 -17 1 -21 -5z"/>
<path d="M4239 3575 c-6 -38 -2 -59 11 -62 13 -4 13 -3 0 6 -13 9 -13 12 -1
20 10 6 11 13 2 27 -6 11 -11 15 -12 9z"/>
<path d="M410 3470 c0 -5 5 -10 10 -10 6 0 10 5 10 10 0 6 -4 10 -10 10 -5 0
-10 -4 -10 -10z"/>
<path d="M4292 3468 c3 -7 13 -13 24 -14 16 -1 16 0 1 3 -9 3 -15 9 -12 14 4
5 1 9 -5 9 -7 0 -10 -6 -8 -12z"/>
<path d="M433 3444 c-3 -8 0 -21 6 -27 9 -9 11 -8 5 7 -4 11 -2 21 7 27 10 6
11 9 1 9 -7 0 -15 -7 -19 -16z"/>
<path d="M4281 3443 c-1 -17 16 -25 25 -12 4 7 3 9 -4 5 -5 -3 -13 0 -15 6 -4
9 -6 10 -6 1z"/>
<path d="M413 3408 c3 -10 2 -20 -3 -23 -6 -4 -10 -2 -10 3 0 6 -7 13 -15 16
-13 5 -12 1 2 -18 18 -23 18 -23 32 -4 11 16 11 22 1 31 -10 9 -12 8 -7 -5z"/>
<path d="M360 3368 c-13 -8 -12 -9 2 -5 11 4 18 -2 22 -19 4 -16 11 -22 18
-18 9 6 9 9 0 12 -7 2 -12 10 -12 17 0 20 -14 25 -30 13z"/>
<path d="M4344 3364 c23 -17 33 -18 41 -4 4 6 -1 7 -11 3 -10 -4 -15 -2 -11 3
3 6 -4 11 -16 11 -21 2 -22 1 -3 -13z"/>
<path d="M4381 3314 c0 -11 3 -14 6 -6 3 7 2 16 -1 19 -3 4 -6 -2 -5 -13z"/>
<path d="M360 3309 c0 -5 5 -7 10 -4 6 3 10 8 10 11 0 2 -4 4 -10 4 -5 0 -10
-5 -10 -11z"/>
<path d="M316 3258 c-9 -10 -11 -18 -6 -18 6 0 13 7 16 15 4 8 10 13 14 10 5
-3 11 -2 14 3 10 17 -23 8 -38 -10z"/>
<path d="M4434 3265 c3 -23 12 -26 13 -5 1 11 -2 20 -7 20 -4 0 -7 -7 -6 -15z"/>
<path d="M4396 3255 c-3 -9 -10 -13 -16 -10 -17 10 -11 0 19 -39 23 -28 30
-33 35 -20 8 22 7 31 -2 16 -7 -9 -13 -8 -27 8 -15 16 -16 22 -5 35 7 9 11 18
8 21 -3 3 -8 -2 -12 -11z"/>
<path d="M4410 3230 c0 -5 5 -10 10 -10 6 0 10 5 10 10 0 6 -4 10 -10 10 -5 0
-10 -4 -10 -10z"/>
<path d="M275 3211 c-3 -5 0 -13 6 -17 8 -5 9 -3 4 6 -6 10 -4 12 9 7 10 -4
15 -3 11 3 -8 13 -22 13 -30 1z"/>
<path d="M276 3165 c-3 -9 -6 -22 -5 -28 0 -7 5 -1 10 12 5 13 8 26 5 28 -2 2
-6 -3 -10 -12z"/>
<path d="M4436 3163 c-6 -14 -5 -15 5 -6 7 7 10 15 7 18 -3 3 -9 -2 -12 -12z"/>
<path d="M296 3144 c-10 -25 1 -29 14 -5 6 12 7 21 1 21 -5 0 -12 -7 -15 -16z"/>
<path d="M4459 3152 c-1 -4 -1 -11 0 -16 1 -5 -5 -6 -13 -3 -8 3 -17 0 -19 -7
-4 -10 1 -12 15 -8 14 3 19 1 14 -6 -4 -7 -2 -12 4 -12 6 0 8 11 6 26 -4 19
-1 24 9 20 8 -3 16 -2 19 2 3 4 -4 9 -15 9 -10 1 -20 -1 -20 -5z"/>
<path d="M240 3110 c18 -12 30 -13 30 -2 0 4 -10 9 -22 9 -18 2 -20 0 -8 -7z"/>
<path d="M287 3095 c3 -8 9 -12 14 -9 12 7 11 11 -5 17 -10 4 -13 1 -9 -8z"/>
<path d="M4495 3090 c-3 -5 -1 -10 4 -10 6 0 11 5 11 10 0 6 -2 10 -4 10 -3 0
-8 -4 -11 -10z"/>
<path d="M266 3073 c-6 -14 -5 -15 5 -6 7 7 10 15 7 18 -3 3 -9 -2 -12 -12z"/>
<path d="M4441 3073 c7 -10 14 -19 14 -20 0 -1 7 8 14 20 13 20 13 21 -2 8
-11 -9 -17 -10 -17 -2 0 6 -5 11 -11 11 -8 0 -7 -6 2 -17z"/>
<path d="M4470 3050 c-6 -12 -9 -24 -7 -27 3 -2 8 5 12 16 3 12 11 21 16 21 6
0 8 -4 5 -8 -2 -4 5 -19 15 -32 l20 -25 -12 25 c-8 14 -13 29 -14 34 0 19 -24
16 -35 -4z"/>
<path d="M214 3018 c-4 -6 -3 -8 4 -5 14 9 43 -3 36 -14 -3 -5 -9 -7 -13 -5
-4 3 -8 -5 -8 -17 -2 -21 -1 -21 17 3 18 23 18 26 3 38 -21 15 -30 15 -39 0z"/>
<path d="M4510 2959 c0 -5 -5 -7 -11 -3 -8 5 -8 1 0 -14 6 -12 17 -24 24 -28
8 -5 7 -2 -2 9 -11 14 -11 20 -1 32 9 10 9 15 1 15 -6 0 -11 -5 -11 -11z"/>
<path d="M4541 2946 c-9 -11 -9 -16 1 -22 7 -4 10 -4 6 1 -4 4 -3 14 3 22 6 7
9 13 6 13 -2 0 -10 -6 -16 -14z"/>
<path d="M202 2914 c10 -10 20 -16 22 -13 3 3 -5 11 -17 18 -21 13 -21 12 -5
-5z"/>
<path d="M4485 2910 c3 -5 11 -10 16 -10 6 0 7 5 4 10 -3 6 -11 10 -16 10 -6
0 -7 -4 -4 -10z"/>
<path d="M4510 2890 c-13 -8 -12 -10 3 -10 9 0 17 5 17 10 0 12 -1 12 -20 0z"/>
<path d="M4526 2871 c-19 -7 -19 -8 0 -13 13 -3 21 0 21 8 0 8 -1 14 -1 13 -1
0 -10 -4 -20 -8z"/>
<path d="M4573 2865 c0 -8 4 -12 9 -9 5 3 6 10 3 15 -9 13 -12 11 -12 -6z"/>
<path d="M176 2853 c-6 -14 -5 -15 5 -6 7 7 10 15 7 18 -3 3 -9 -2 -12 -12z"/>
<path d="M200 2830 c8 -5 20 -10 25 -10 6 0 3 5 -5 10 -8 5 -19 10 -25 10 -5
0 -3 -5 5 -10z"/>
<path d="M190 2813 c0 -5 9 -15 19 -23 11 -7 18 -18 15 -22 -3 -5 -12 -4 -20
3 -8 7 -14 7 -14 1 0 -5 6 -12 14 -15 17 -7 38 15 28 28 -13 18 -42 38 -42 28z"/>
<path d="M172 2790 c0 -14 2 -19 5 -12 2 6 2 18 0 25 -3 6 -5 1 -5 -13z"/>
<path d="M4515 2790 c-3 -5 -1 -10 4 -10 6 0 11 5 11 10 0 6 -2 10 -4 10 -3 0
-8 -4 -11 -10z"/>
<path d="M4533 2768 c-4 -7 -8 -19 -9 -26 -2 -10 1 -11 12 -1 10 8 14 8 14 0
0 -6 8 -11 18 -10 10 0 12 3 4 6 -6 2 -10 9 -6 14 3 5 2 9 -3 8 -20 -3 -27 2
-13 11 9 6 10 10 3 10 -6 0 -15 -6 -20 -12z"/>
<path d="M4575 2770 c3 -5 8 -10 11 -10 2 0 4 5 4 10 0 6 -5 10 -11 10 -5 0
-7 -4 -4 -10z"/>
<path d="M177 2749 c7 -7 15 -10 18 -7 3 3 -2 9 -12 12 -14 6 -15 5 -6 -5z"/>
<path d="M210 2732 c0 -7 -6 -12 -14 -12 -20 0 -31 -19 -18 -32 7 -7 16 -2 27
16 10 15 15 29 11 33 -3 3 -6 1 -6 -5z m-10 -26 c0 -3 -4 -8 -10 -11 -5 -3
-10 -1 -10 4 0 6 5 11 10 11 6 0 10 -2 10 -4z"/>
<path d="M140 2721 c0 -6 4 -13 10 -16 6 -3 7 1 4 9 -7 18 -14 21 -14 7z"/>
<path d="M4530 2710 c0 -5 9 -14 20 -20 14 -7 20 -7 20 0 0 5 -7 10 -16 10 -8
0 -12 5 -9 10 3 6 1 10 -4 10 -6 0 -11 -4 -11 -10z"/>
<path d="M4575 2710 c3 -5 8 -10 11 -10 2 0 4 5 4 10 0 6 -5 10 -11 10 -5 0
-7 -4 -4 -10z"/>
<path d="M153 2675 c0 -8 4 -12 8 -9 4 2 10 0 13 -5 4 -5 -4 -12 -16 -14 -21
-4 -21 -4 -2 -6 11 0 29 9 40 22 10 12 12 16 4 10 -11 -10 -17 -10 -30 2 -14
13 -17 13 -17 0z"/>
<path d="M4590 2649 c0 -5 5 -7 10 -4 6 3 10 8 10 11 0 2 -4 4 -10 4 -5 0 -10
-5 -10 -11z"/>
<path d="M4546 2631 c-3 -5 3 -7 14 -4 14 4 20 1 18 -7 -2 -7 4 -15 12 -17 12
-4 12 -3 2 5 -8 5 -13 13 -12 18 2 13 -27 17 -34 5z"/>
<path d="M150 2620 c-9 -6 -10 -10 -3 -10 6 0 15 5 18 10 8 12 4 12 -15 0z"/>
<path d="M157 2589 c7 -7 15 -10 18 -7 3 3 -2 9 -12 12 -14 6 -15 5 -6 -5z"/>
<path d="M135 2570 c-3 -5 -1 -10 4 -10 6 0 11 5 11 10 0 6 -2 10 -4 10 -3 0
-8 -4 -11 -10z"/>
<path d="M4596 2544 c-8 -20 -8 -24 2 -24 4 0 8 9 9 20 2 24 -3 26 -11 4z"/>
<path d="M4560 2510 c0 -5 5 -10 10 -10 6 0 10 5 10 10 0 6 -4 10 -10 10 -5 0
-10 -4 -10 -10z"/>
<path d="M4615 2509 c-4 -6 -5 -12 -2 -15 2 -3 7 2 10 11 7 17 1 20 -8 4z"/>
<path d="M148 2493 c6 -2 18 -2 25 0 6 3 1 5 -13 5 -14 0 -19 -2 -12 -5z"/>
<path d="M181 2481 c-8 -5 -9 -11 -3 -15 5 -3 12 1 16 9 6 17 6 18 -13 6z"/>
<path d="M4545 2480 c-4 -6 -4 -11 -1 -11 3 -1 11 -3 16 -4 6 -1 13 -3 17 -4
4 0 -1 -7 -12 -14 -14 -11 -15 -16 -5 -22 8 -5 11 -4 7 2 -4 6 0 13 8 17 17 6
10 32 -10 40 -8 3 -17 1 -20 -4z"/>
<path d="M130 2465 c0 -8 2 -15 4 -15 2 0 6 7 10 15 3 8 1 15 -4 15 -6 0 -10
-7 -10 -15z"/>
<path d="M4605 2469 c-4 -6 -5 -12 -2 -15 2 -3 7 2 10 11 7 17 1 20 -8 4z"/>
<path d="M150 2452 c0 -4 10 -9 22 -9 18 -2 20 0 8 7 -18 12 -30 13 -30 2z"/>
<path d="M150 2420 c0 -5 5 -10 10 -10 6 0 10 5 10 10 0 6 -4 10 -10 10 -5 0
-10 -4 -10 -10z"/>
<path d="M4598 2413 c13 -3 19 -9 16 -15 -4 -7 -2 -8 5 -4 17 11 3 26 -22 25
-22 -2 -22 -2 1 -6z"/>
<path d="M177 2403 c-10 -9 -9 -23 1 -23 5 0 9 7 9 15 0 17 -1 18 -10 8z"/>
<path d="M4545 2401 c-6 -11 9 -23 19 -14 9 9 7 23 -3 23 -6 0 -12 -4 -16 -9z"/>
<path d="M104 2388 c-3 -4 5 -5 17 -3 30 6 36 14 9 12 -12 -1 -24 -5 -26 -9z"/>
<path d="M4591 2383 c7 -12 15 -20 18 -17 3 2 -3 12 -13 22 -17 16 -18 16 -5
-5z"/>
<path d="M141 2377 c2 -1 13 -10 25 -20 17 -14 21 -14 21 -2 0 8 -4 12 -8 9
-4 -2 -10 0 -14 6 -3 5 -11 10 -17 10 -6 0 -9 -1 -7 -3z"/>
<path d="M4570 2373 c0 -12 28 -38 34 -32 2 2 -5 13 -15 23 -11 11 -19 15 -19
9z"/>
<path d="M137 2343 c5 -12 3 -14 -7 -8 -9 5 -11 4 -6 -4 4 -6 12 -9 17 -6 12
8 12 35 -1 35 -5 0 -6 -7 -3 -17z"/>
<path d="M166 2326 c5 -14 4 -17 -4 -12 -7 4 -15 1 -18 -8 -3 -9 -11 -13 -17
-9 -6 4 -7 1 -2 -7 6 -10 11 -9 22 5 7 11 13 15 13 10 0 -5 5 -4 12 3 9 9 9
15 -1 25 -10 10 -11 8 -5 -7z"/>
<path d="M4570 2333 c0 -4 5 -15 10 -23 8 -13 10 -13 10 2 0 9 -4 20 -10 23
-5 3 -10 3 -10 -2z"/>
<path d="M4553 2305 c0 -8 4 -15 9 -15 4 0 8 4 8 9 0 6 -4 12 -8 15 -5 3 -9
-1 -9 -9z"/>
<path d="M4616 2303 c-6 -14 -5 -15 5 -6 7 7 10 15 7 18 -3 3 -9 -2 -12 -12z"/>
<path d="M166 2284 c-11 -8 -16 -14 -10 -14 13 0 39 18 34 24 -3 2 -14 -2 -24
-10z"/>
<path d="M4580 2280 c-8 -5 -11 -12 -7 -17 5 -4 12 -1 16 6 7 11 10 11 14 0 3
-9 6 -10 6 -2 1 17 -13 23 -29 13z"/>
<path d="M150 2250 c0 -5 5 -10 10 -10 6 0 10 5 10 10 0 6 -4 10 -10 10 -5 0
-10 -4 -10 -10z"/>
<path d="M4559 2249 c-4 -13 -6 -62 -2 -51 3 6 9 10 14 6 5 -3 12 2 15 10 3 9
10 13 15 10 5 -3 6 3 2 12 -4 12 -8 14 -11 6 -3 -10 -7 -10 -18 -1 -8 6 -15
10 -15 8z m21 -30 c0 -6 -4 -7 -10 -4 -5 3 -10 11 -10 16 0 6 5 7 10 4 6 -3
10 -11 10 -16z"/>
<path d="M125 2230 c-3 -5 -1 -10 4 -10 6 0 11 5 11 10 0 6 -2 10 -4 10 -3 0
-8 -4 -11 -10z"/>
<path d="M170 2190 c-8 -5 -10 -10 -5 -10 6 0 17 5 25 10 8 5 11 10 5 10 -5 0
-17 -5 -25 -10z"/>
<path d="M4571 2183 c-1 -17 16 -25 25 -12 4 7 3 9 -4 5 -5 -3 -13 0 -15 6 -4
9 -6 10 -6 1z"/>
<path d="M4547 2167 c-3 -8 5 -25 16 -38 12 -14 18 -20 14 -13 -4 7 -10 22
-12 34 -6 29 -11 34 -18 17z"/>
<path d="M156 2161 c-5 -7 -5 -15 -2 -18 3 -4 6 0 6 8 0 11 2 11 10 -1 7 -11
5 -17 -8 -22 -15 -6 -15 -7 -1 -7 9 -1 23 7 30 17 7 9 9 14 5 10 -5 -4 -14 0
-21 9 -9 12 -14 13 -19 4z"/>
<path d="M4590 2150 c-12 -7 -10 -9 7 -7 12 0 19 5 17 9 -6 10 -6 10 -24 -2z"/>
<path d="M183 2112 c-9 -5 -6 -12 10 -21 19 -13 21 -12 10 1 -7 8 -10 18 -6
21 9 9 1 8 -14 -1z"/>
<path d="M135 2100 c-3 -6 1 -7 9 -4 18 7 21 14 7 14 -6 0 -13 -4 -16 -10z"/>
<path d="M150 2080 c-13 -8 -12 -10 3 -10 9 0 17 5 17 10 0 12 -1 12 -20 0z"/>
<path d="M4576 2075 c-3 -8 -1 -15 4 -15 6 0 10 7 10 15 0 8 -2 15 -4 15 -2 0
-6 -7 -10 -15z"/>
<path d="M180 2076 c0 -2 8 -10 18 -17 15 -13 16 -12 3 4 -13 16 -21 21 -21
13z"/>
<path d="M170 2052 c0 -7 4 -12 8 -12 5 0 9 -6 10 -12 1 -7 3 -24 4 -37 3 -24
28 -43 28 -21 0 6 -4 9 -9 5 -6 -3 -10 3 -10 12 1 29 -6 52 -19 65 -9 9 -12 9
-12 0z"/>
<path d="M4555 2039 c-11 -16 -1 -19 13 -3 7 8 8 14 3 14 -5 0 -13 -5 -16 -11z"/>
<path d="M170 1956 c0 -2 7 -7 16 -10 8 -3 12 -2 9 4 -6 10 -25 14 -25 6z"/>
<path d="M4575 1949 c-4 -6 -5 -12 -2 -15 2 -3 7 2 10 11 7 17 1 20 -8 4z"/>
<path d="M218 1943 c6 -2 9 -10 6 -15 -4 -7 -2 -8 5 -4 13 9 5 26 -12 25 -9 0
-8 -2 1 -6z"/>
<path d="M160 1930 c-12 -7 -10 -9 7 -7 12 0 19 5 17 9 -6 10 -6 10 -24 -2z"/>
<path d="M4515 1911 c3 -5 -1 -11 -7 -14 -7 -2 -11 -7 -8 -10 3 -3 13 0 23 8
16 11 16 13 2 19 -9 3 -14 2 -10 -3z"/>
<path d="M4553 1880 c5 -29 13 -33 13 -5 0 14 -4 25 -8 25 -4 0 -7 -9 -5 -20z"/>
<path d="M4530 1860 c6 -11 12 -20 14 -20 2 0 2 9 -1 20 -3 11 -9 20 -15 20
-5 0 -4 -9 2 -20z"/>
<path d="M4516 1825 c4 -8 8 -15 10 -15 2 0 4 7 4 15 0 8 -4 15 -10 15 -5 0
-7 -7 -4 -15z"/>
<path d="M197 1819 c7 -7 15 -10 18 -7 3 3 -2 9 -12 12 -14 6 -15 5 -6 -5z"/>
<path d="M233 1810 c-2 -23 13 -35 23 -19 5 8 3 9 -6 4 -9 -5 -10 -2 -5 14 3
11 3 21 -2 21 -5 0 -9 -9 -10 -20z"/>
<path d="M4485 1810 c-3 -5 -2 -10 4 -10 5 0 13 5 16 10 3 6 2 10 -4 10 -5 0
-13 -4 -16 -10z"/>
<path d="M198 1784 c-6 -22 12 -28 29 -9 4 4 3 5 -4 1 -7 -3 -13 1 -15 11 -3
15 -5 15 -10 -3z"/>
<path d="M4484 1778 l-29 -23 29 -28 c16 -16 26 -22 23 -14 -3 8 1 24 9 36 9
12 11 21 5 21 -6 0 -11 -5 -11 -11 0 -5 -4 -7 -10 -4 -6 4 -7 -1 -3 -12 6 -16
5 -17 -11 -3 -17 13 -17 15 10 37 37 30 27 30 -12 1z"/>
<path d="M254 1769 c-4 -7 -3 -9 4 -5 5 3 13 0 15 -6 4 -9 6 -10 6 -1 1 17
-16 25 -25 12z"/>
<path d="M234 1745 c1 -8 6 -18 11 -22 4 -4 5 -3 2 4 -4 6 -2 13 5 15 8 3 6 6
-4 10 -10 4 -15 2 -14 -7z"/>
<path d="M4456 1691 c-13 -14 -14 -21 -5 -27 7 -4 10 -3 7 2 -7 11 17 35 26
27 3 -4 6 -1 6 5 0 18 -15 14 -34 -7z"/>
<path d="M233 1682 c0 -12 5 -22 9 -22 11 0 10 12 -2 30 -7 12 -9 10 -7 -8z"/>
<path d="M4515 1679 c-4 -6 -5 -12 -2 -15 2 -3 7 2 10 11 7 17 1 20 -8 4z"/>
<path d="M274 1664 c-18 -14 -18 -15 4 -4 12 6 22 13 22 15 0 8 -5 6 -26 -11z"/>
<path d="M4470 1660 c0 -6 7 -10 15 -10 8 0 15 2 15 4 0 2 -7 6 -15 10 -8 3
-15 1 -15 -4z"/>
<path d="M4441 1646 c17 -18 63 -31 53 -15 -3 6 -9 8 -12 5 -3 -4 -17 1 -31
10 -24 15 -25 15 -10 0z"/>
<path d="M235 1641 c-3 -5 -2 -12 3 -15 5 -3 9 1 9 9 0 17 -3 19 -12 6z"/>
<path d="M260 1625 c0 -8 2 -15 4 -15 2 0 6 7 10 15 3 8 1 15 -4 15 -6 0 -10
-7 -10 -15z"/>
<path d="M290 1624 c0 -17 27 -37 34 -25 4 5 2 12 -4 16 -5 3 -10 3 -10 -2 0
-4 -5 -1 -10 7 -5 8 -10 10 -10 4z"/>
<path d="M264 1588 c-4 -7 -3 -8 4 -4 7 4 17 4 23 0 8 -4 7 -9 -2 -14 -7 -5
-14 -16 -15 -24 -1 -9 2 -14 7 -10 5 3 7 9 4 14 -3 4 2 11 11 14 13 5 14 9 4
21 -15 18 -26 19 -36 3z"/>
<path d="M316 1562 c-2 -4 4 -8 14 -8 10 0 16 4 14 8 -3 4 -9 8 -14 8 -5 0
-11 -4 -14 -8z"/>
<path d="M308 1533 c6 -2 18 -2 25 0 6 3 1 5 -13 5 -14 0 -19 -2 -12 -5z"/>
<path d="M285 1510 c-3 -6 1 -7 9 -4 18 7 21 14 7 14 -6 0 -13 -4 -16 -10z"/>
<path d="M322 1504 c-7 -8 -8 -14 -3 -14 10 0 25 19 20 25 -2 1 -10 -3 -17
-11z"/>
<path d="M350 1490 c0 -5 5 -10 11 -10 5 0 7 5 4 10 -3 6 -8 10 -11 10 -2 0
-4 -4 -4 -10z"/>
<path d="M4390 1480 c0 -5 7 -7 15 -4 8 4 15 8 15 10 0 2 -7 4 -15 4 -8 0 -15
-4 -15 -10z"/>
<path d="M318 1473 c7 -3 16 -2 19 1 4 3 -2 6 -13 5 -11 0 -14 -3 -6 -6z"/>
<path d="M4378 1448 c7 -7 16 -7 28 0 14 8 13 10 -10 10 -18 0 -24 -4 -18 -10z"/>
<path d="M330 1430 c0 -5 5 -10 10 -10 6 0 10 5 10 10 0 6 -4 10 -10 10 -5 0
-10 -4 -10 -10z"/>
<path d="M4350 1430 c-11 -7 -11 -10 -2 -10 7 0 10 -4 7 -10 -4 -6 1 -7 11 -3
13 5 15 3 9 -7 -6 -9 -4 -11 5 -5 10 6 10 11 -3 20 -9 7 -14 15 -10 18 9 10 0
8 -17 -3z"/>
<path d="M357 1414 c-3 -4 1 -17 10 -30 9 -14 18 -22 21 -20 2 3 14 1 26 -5
20 -10 20 -9 2 5 -10 9 -23 13 -27 10 -5 -3 -9 2 -9 10 0 9 -5 16 -11 16 -5 0
-7 5 -4 10 7 11 2 14 -8 4z"/>
<path d="M4399 1398 c-5 -18 -6 -38 -1 -34 7 8 12 36 6 36 -2 0 -4 -1 -5 -2z"/>
<path d="M4348 1369 c-20 -11 -24 -29 -7 -29 5 0 7 5 4 10 -6 9 8 14 28 11 5
-1 6 3 2 9 -7 12 -6 12 -27 -1z"/>
<path d="M390 1339 c0 -5 5 -7 10 -4 6 3 10 8 10 11 0 2 -4 4 -10 4 -5 0 -10
-5 -10 -11z"/>
<path d="M4308 1306 c-19 -26 -18 -58 3 -64 8 -2 10 0 4 5 -17 13 -18 43 -1
37 8 -3 17 -1 21 5 4 7 -1 8 -12 4 -16 -6 -16 -5 -4 10 8 10 12 19 10 21 -2 2
-12 -6 -21 -18z"/>
<path d="M4351 1318 c-1 -20 14 -24 25 -6 4 6 3 8 -4 4 -5 -3 -13 0 -15 6 -3
8 -6 6 -6 -4z"/>
<path d="M366 1308 c3 -5 9 -7 12 -4 3 3 14 -2 24 -11 18 -16 18 -16 12 0 -3
9 -9 17 -13 18 -3 0 -14 2 -24 4 -9 2 -14 -1 -11 -7z"/>
<path d="M438 1273 c7 -3 16 -2 19 1 4 3 -2 6 -13 5 -11 0 -14 -3 -6 -6z"/>
<path d="M4340 1270 c-9 -6 -10 -10 -3 -10 6 0 15 5 18 10 8 12 4 12 -15 0z"/>
<path d="M427 1229 c7 -7 15 -10 18 -7 3 3 -2 9 -12 12 -14 6 -15 5 -6 -5z"/>
<path d="M476 1225 c4 -8 8 -15 10 -15 2 0 4 7 4 15 0 8 -4 15 -10 15 -5 0 -7
-7 -4 -15z"/>
<path d="M4253 1228 c5 -17 30 -17 33 0 1 7 0 8 -3 2 -2 -5 -9 -10 -14 -10 -6
0 -7 5 -4 10 3 6 1 10 -5 10 -7 0 -10 -6 -7 -12z"/>
<path d="M455 1211 c-6 -11 13 -26 22 -17 4 3 1 6 -6 6 -7 0 -9 5 -6 10 3 6 4
10 1 10 -3 0 -7 -4 -11 -9z"/>
<path d="M501 1201 c-10 -6 -9 -10 3 -14 8 -3 18 -2 21 3 8 13 -9 20 -24 11z"/>
<path d="M4223 1203 c-7 -2 -13 -11 -13 -19 0 -9 -5 -12 -12 -8 -7 5 -8 3 -3
-6 6 -10 11 -9 22 6 8 10 19 18 24 17 5 -2 9 2 9 7 0 11 -7 12 -27 3z"/>
<path d="M488 1173 c6 -2 9 -10 6 -15 -4 -7 -2 -8 5 -4 13 9 5 26 -12 25 -9 0
-8 -2 1 -6z"/>
<path d="M4220 1145 c0 -8 2 -15 4 -15 2 0 6 7 10 15 3 8 1 15 -4 15 -6 0 -10
-7 -10 -15z"/>
<path d="M537 1133 c-4 -3 -7 -11 -7 -17 0 -6 5 -5 12 2 6 6 9 14 7 17 -3 3
-9 2 -12 -2z"/>
<path d="M4187 1126 c-22 -17 -22 -23 3 -36 14 -7 20 -7 20 0 0 5 -8 10 -17
10 -16 1 -16 2 1 15 11 8 18 17 15 19 -2 2 -12 -1 -22 -8z"/>
<path d="M575 1090 c3 -5 11 -10 16 -10 6 0 7 5 4 10 -3 6 -11 10 -16 10 -6 0
-7 -4 -4 -10z"/>
<path d="M535 1070 c3 -5 8 -10 11 -10 2 0 4 5 4 10 0 6 -5 10 -11 10 -5 0 -7
-4 -4 -10z"/>
<path d="M4130 1070 c0 -5 5 -10 10 -10 6 0 10 5 10 10 0 6 -4 10 -10 10 -5 0
-10 -4 -10 -10z"/>
<path d="M4187 1069 c7 -7 15 -10 18 -7 3 3 -2 9 -12 12 -14 6 -15 5 -6 -5z"/>
<path d="M574 1048 c-5 -8 -2 -9 10 -5 13 5 17 3 13 -6 -3 -7 4 -19 14 -25 12
-8 19 -8 19 -2 0 5 -4 10 -9 10 -5 0 -11 9 -14 20 -6 22 -22 26 -33 8z"/>
<path d="M4150 1041 c0 -6 4 -13 10 -16 6 -3 7 1 4 9 -7 18 -14 21 -14 7z"/>
<path d="M4101 1027 c-1 -11 -6 -15 -13 -11 -7 5 -8 3 -3 -5 10 -16 29 2 22
21 -4 8 -6 7 -6 -5z"/>
<path d="M4135 1009 c-4 -6 -4 -13 -1 -16 3 -4 6 -1 6 7 0 10 4 10 18 -1 15
-13 16 -12 3 4 -16 20 -18 20 -26 6z"/>
<path d="M4075 980 c7 -22 6 -23 -9 -11 -10 9 -16 10 -16 2 0 -6 5 -12 10 -12
20 -3 25 -4 39 -13 8 -5 6 2 -5 20 -25 41 -28 42 -19 14z"/>
<path d="M4106 991 c-4 -6 -2 -11 4 -11 6 0 9 -4 6 -9 -7 -11 21 -8 31 4 4 4
3 5 -4 1 -6 -3 -16 1 -21 10 -6 11 -11 13 -16 5z"/>
<path d="M654 968 c-5 -7 -2 -9 7 -6 9 4 21 -5 31 -23 10 -16 13 -29 8 -29 -5
0 -14 8 -19 18 -6 9 -11 12 -11 6 0 -15 29 -39 37 -30 10 9 13 37 4 31 -5 -2
-13 7 -19 20 -12 27 -27 32 -38 13z"/>
<path d="M4070 930 c0 -5 5 -10 10 -10 6 0 10 5 10 10 0 6 -4 10 -10 10 -5 0
-10 -4 -10 -10z"/>
<path d="M734 922 c4 -6 -2 -17 -13 -24 -20 -12 -20 -12 0 -26 11 -8 23 -11
26 -8 3 3 -2 8 -11 12 -16 6 -16 8 -1 24 12 14 13 20 4 26 -8 4 -10 3 -5 -4z"/>
<path d="M4040 916 c0 -2 7 -9 15 -16 13 -11 14 -10 9 4 -5 14 -24 23 -24 12z"/>
<path d="M4020 872 c0 -5 9 -8 20 -7 29 2 33 10 5 13 -14 1 -25 -2 -25 -6z"/>
<path d="M709 847 c6 -8 7 -18 3 -22 -4 -5 -1 -5 6 -1 10 6 10 11 1 22 -6 8
-14 14 -16 14 -3 0 0 -6 6 -13z"/>
<path d="M3990 850 c0 -5 5 -10 10 -10 6 0 10 5 10 10 0 6 -4 10 -10 10 -5 0
-10 -4 -10 -10z"/>
<path d="M759 823 c-13 -17 -13 -17 6 -3 11 8 22 16 24 17 2 2 0 3 -6 3 -6 0
-17 -8 -24 -17z"/>
<path d="M3931 823 c9 -10 8 -13 -2 -13 -8 0 -21 -4 -29 -10 -12 -7 -12 -12 0
-34 15 -30 30 -34 25 -8 -1 9 -8 16 -14 15 -21 -5 -11 18 12 26 25 10 33 38
10 38 -9 0 -10 -4 -2 -14z"/>
<path d="M3960 830 c0 -5 5 -10 10 -10 6 0 10 5 10 10 0 6 -4 10 -10 10 -5 0
-10 -4 -10 -10z"/>
<path d="M814 819 c-4 -7 -3 -9 4 -5 5 3 13 0 15 -6 4 -9 6 -10 6 -1 1 17 -16
25 -25 12z"/>
<path d="M730 813 c0 -6 8 -17 18 -24 16 -13 16 -13 2 6 -8 11 -16 22 -17 24
-2 2 -3 0 -3 -6z"/>
<path d="M779 818 c-6 -21 -5 -37 2 -32 5 3 7 9 4 14 -3 4 1 11 7 13 10 4 10
6 1 6 -7 1 -13 0 -14 -1z"/>
<path d="M3946 795 c-11 -8 -15 -15 -9 -15 6 0 16 7 23 15 16 19 11 19 -14 0z"/>
<path d="M808 792 c8 -5 13 -13 12 -18 0 -5 7 -11 17 -13 10 -1 25 -9 33 -17
10 -8 20 -10 30 -4 11 7 11 10 3 11 -28 3 -32 4 -39 12 -4 4 -16 7 -26 7 -10
0 -17 5 -15 11 1 6 -5 14 -13 16 -12 4 -12 3 -2 -5z"/>
<path d="M790 773 c0 -6 8 -17 18 -24 16 -13 16 -13 2 6 -8 11 -16 22 -17 24
-2 2 -3 0 -3 -6z"/>
<path d="M3867 767 c-3 -7 -2 -19 3 -26 5 -10 8 -9 13 2 3 7 2 19 -3 26 -5 10
-8 9 -13 -2z"/>
<path d="M3959 778 c-5 -18 -6 -38 -1 -34 7 8 12 36 6 36 -2 0 -4 -1 -5 -2z"/>
<path d="M841 738 c9 -7 15 -21 13 -30 -1 -10 3 -21 8 -25 7 -3 8 -1 4 5 -9
15 6 16 21 1 8 -8 15 -2 26 20 14 28 14 29 -3 19 -10 -7 -16 -18 -13 -26 5
-12 3 -12 -15 -1 -11 7 -19 16 -16 20 2 5 -6 13 -18 19 -20 9 -21 9 -7 -2z"/>
<path d="M3893 733 c4 -6 2 -13 -5 -15 -8 -3 -6 -6 4 -10 17 -7 19 15 3 29 -4
4 -5 3 -2 -4z"/>
<path d="M931 708 c-1 -22 11 -29 29 -16 12 8 12 9 -2 4 -10 -3 -18 1 -21 12
-4 16 -5 16 -6 0z"/>
<path d="M3850 710 c0 -5 5 -10 10 -10 6 0 10 5 10 10 0 6 -4 10 -10 10 -5 0
-10 -4 -10 -10z"/>
<path d="M3820 696 c0 -2 7 -7 16 -10 8 -3 12 -2 9 4 -6 10 -25 14 -25 6z"/>
<path d="M3796 675 c-3 -8 -1 -15 4 -15 6 0 10 7 10 15 0 8 -2 15 -4 15 -2 0
-6 -7 -10 -15z"/>
<path d="M900 665 c-11 -13 -10 -14 5 -9 14 6 16 4 10 -7 -5 -8 -4 -11 0 -6
12 10 15 37 5 37 -4 0 -13 -7 -20 -15z"/>
<path d="M970 669 c0 -5 -4 -8 -9 -4 -5 3 -12 1 -15 -4 -8 -13 22 -7 36 7 9 9
9 12 0 12 -7 0 -12 -5 -12 -11z"/>
<path d="M990 650 c0 -5 5 -10 10 -10 6 0 10 5 10 10 0 6 -4 10 -10 10 -5 0
-10 -4 -10 -10z"/>
<path d="M3764 649 c-5 -8 -3 -9 6 -4 10 6 12 4 7 -8 -3 -10 -2 -17 3 -17 13
0 13 27 1 35 -5 3 -13 0 -17 -6z"/>
<path d="M3723 642 c-8 -5 -9 -13 -3 -22 8 -13 10 -13 10 2 0 9 6 19 13 21 6
3 8 6 2 6 -5 0 -15 -3 -22 -7z"/>
<path d="M958 633 c7 -3 16 -2 19 1 4 3 -2 6 -13 5 -11 0 -14 -3 -6 -6z"/>
<path d="M3750 621 c0 -6 4 -13 10 -16 6 -3 7 1 4 9 -7 18 -14 21 -14 7z"/>
<path d="M1020 601 c-8 -6 -18 -7 -22 -5 -4 3 -8 1 -8 -5 0 -5 9 -9 20 -8 11
1 20 4 20 8 0 4 8 10 18 12 12 3 13 5 2 6 -8 0 -22 -3 -30 -8z"/>
<path d="M1061 591 c-11 -7 -9 -10 8 -16 13 -4 25 -4 28 -1 4 3 -1 6 -11 6 -9
0 -14 5 -11 10 8 12 4 12 -14 1z"/>
<path d="M3637 594 c-3 -4 1 -13 9 -21 19 -20 26 -13 10 9 -7 10 -16 15 -19
12z"/>
<path d="M3698 589 c-7 -4 -16 -5 -22 -2 -5 3 -6 1 -2 -5 5 -8 13 -9 24 -3 9
4 25 7 35 6 9 -2 17 1 17 5 0 10 -35 9 -52 -1z"/>
<path d="M1030 561 c0 -6 4 -12 8 -15 5 -3 9 1 9 9 0 8 -4 15 -9 15 -4 0 -8
-4 -8 -9z"/>
<path d="M3630 556 c0 -8 4 -17 9 -20 5 -4 7 3 4 14 -6 23 -13 26 -13 6z"/>
<path d="M1057 541 c-4 -17 -3 -21 5 -13 5 5 8 16 6 23 -3 8 -7 3 -11 -10z"/>
<path d="M3670 550 c-12 -7 -10 -9 7 -7 12 0 19 5 17 9 -6 10 -6 10 -24 -2z"/>
<path d="M1090 520 c-6 -11 -8 -20 -6 -20 3 0 10 9 16 20 6 11 8 20 6 20 -3 0
-10 -9 -16 -20z"/>
<path d="M3556 525 c-3 -9 -10 -13 -16 -10 -6 3 -13 -1 -16 -9 -3 -9 -11 -13
-17 -9 -6 4 -7 1 -2 -7 6 -10 11 -9 22 5 7 11 13 15 13 11 0 -5 6 -3 14 3 11
10 17 8 25 -6 6 -10 10 -13 10 -8 0 6 -6 18 -13 28 -12 16 -14 16 -20 2z"/>
<path d="M3590 528 c0 -6 6 -8 14 -5 9 4 17 -1 20 -11 4 -13 4 -13 3 2 -2 19
-37 33 -37 14z"/>
<path d="M1210 502 c6 -13 14 -21 18 -18 3 4 -2 14 -12 24 -18 16 -18 16 -6
-6z"/>
<path d="M1191 490 c14 -31 19 -36 19 -24 0 6 -7 19 -16 30 -14 18 -14 18 -3
-6z"/>
<path d="M3548 489 c-20 -11 -24 -29 -7 -29 5 0 7 5 4 10 -3 6 1 10 9 10 9 0
16 5 16 10 0 12 0 12 -22 -1z"/>
<path d="M1248 482 c8 -5 14 -13 15 -18 3 -13 47 -54 47 -43 0 6 4 7 10 4 6
-3 7 1 3 10 -3 10 -8 12 -12 7 -6 -11 -53 21 -51 35 1 4 -4 9 -12 11 -11 3
-11 2 0 -6z"/>
<path d="M1159 462 c-13 -15 -12 -16 3 -4 13 10 17 10 21 0 4 -9 6 -9 6 -1 2
20 -16 24 -30 5z"/>
<path d="M3560 450 c-8 -5 -10 -10 -5 -10 6 0 17 5 25 10 8 5 11 10 5 10 -5 0
-17 -5 -25 -10z"/>
<path d="M1218 438 c13 -17 36 -18 49 -3 4 4 3 5 -4 2 -6 -4 -14 -1 -16 5 -4
10 -6 9 -6 -1 -1 -11 -4 -11 -18 0 -16 13 -17 12 -5 -3z"/>
<path d="M1340 430 c0 -5 5 -10 11 -10 5 0 7 5 4 10 -3 6 -8 10 -11 10 -2 0
-4 -4 -4 -10z"/>
<path d="M3390 430 c0 -5 5 -10 11 -10 5 0 7 5 4 10 -3 6 -8 10 -11 10 -2 0
-4 -4 -4 -10z"/>
<path d="M3460 430 c-12 -7 -10 -9 8 -7 12 0 22 5 22 9 0 11 -12 10 -30 -2z"/>
<path d="M1260 410 c-12 -7 -10 -9 8 -7 12 0 22 5 22 9 0 11 -12 10 -30 -2z"/>
<path d="M3415 411 c-3 -5 0 -13 6 -17 8 -5 9 -3 4 6 -6 10 -4 12 9 7 10 -4
15 -3 11 3 -8 13 -22 13 -30 1z"/>
<path d="M1333 384 c0 -17 2 -22 7 -13 5 6 6 18 3 26 -8 19 -10 16 -10 -13z"/>
<path d="M1358 403 c7 -3 16 -2 19 1 4 3 -2 6 -13 5 -11 0 -14 -3 -6 -6z"/>
<path d="M1398 403 c-3 -4 -5 -21 -6 -38 0 -22 1 -25 7 -12 4 10 11 18 16 17
5 -1 11 3 13 8 4 12 -25 36 -30 25z m22 -24 c0 -6 -4 -7 -10 -4 -5 3 -10 11
-10 16 0 6 5 7 10 4 6 -3 10 -11 10 -16z"/>
<path d="M3393 391 c0 -11 5 -18 9 -15 4 3 5 11 1 19 -7 21 -12 19 -10 -4z"/>
<path d="M3327 393 c-4 -3 -7 -11 -7 -17 0 -6 4 -5 9 3 5 8 11 9 15 3 3 -6 2
-13 -4 -17 -5 -3 -10 -12 -10 -18 0 -7 5 -4 11 6 6 9 15 14 21 11 6 -4 8 -3 4
4 -3 5 -3 12 1 15 5 2 3 3 -3 1 -6 -1 -16 2 -21 7 -5 5 -12 6 -16 2z"/>
<path d="M3426 375 c-11 -8 -15 -15 -9 -15 6 0 16 7 23 15 16 19 11 19 -14 0z"/>
<path d="M1355 371 c-3 -5 0 -13 6 -17 7 -4 9 -3 5 4 -3 5 0 13 6 15 9 4 10 6
1 6 -6 1 -14 -3 -18 -8z"/>
<path d="M3290 369 c0 -5 -4 -7 -10 -4 -5 3 -10 1 -10 -5 0 -7 -6 -10 -13 -7
-8 3 -20 2 -27 -3 -7 -5 2 -7 23 -7 22 1 39 8 46 19 7 11 7 18 1 18 -5 0 -10
-5 -10 -11z"/>
<path d="M1430 350 c0 -6 4 -9 9 -6 5 4 12 1 14 -4 3 -6 4 -5 3 2 -3 15 -26
23 -26 8z"/>
<path d="M1506 345 c3 -8 10 -13 14 -10 5 3 11 -1 13 -7 4 -10 6 -10 6 -1 1 7
-8 17 -19 23 -16 9 -18 8 -14 -5z"/>
<path d="M3190 330 c0 -5 5 -10 11 -10 5 0 8 -4 4 -9 -3 -5 -1 -12 4 -15 5 -4
8 2 6 11 -2 10 -4 21 -4 26 -1 11 -21 8 -21 -3z"/>
<path d="M3295 331 c-3 -5 0 -13 6 -17 8 -5 9 -3 4 6 -6 10 -4 12 9 7 10 -4
15 -3 11 3 -8 13 -22 13 -30 1z"/>
<path d="M1436 317 c3 -10 9 -15 12 -12 3 3 0 11 -7 18 -10 9 -11 8 -5 -6z"/>
<path d="M1553 299 c1 -22 6 -36 14 -36 10 0 10 4 1 14 -21 25 1 25 26 0 14
-15 26 -22 26 -17 0 5 10 14 22 21 18 10 20 9 15 -5 -4 -9 -2 -16 3 -16 11 0
13 23 3 33 -3 4 -17 0 -30 -8 -13 -9 -23 -11 -23 -6 0 5 -9 13 -20 16 -11 4
-17 11 -14 17 4 6 2 8 -4 4 -5 -3 -12 0 -15 6 -2 7 -4 -3 -4 -23z"/>
<path d="M3238 323 c7 -3 16 -2 19 1 4 3 -2 6 -13 5 -11 0 -14 -3 -6 -6z"/>
<path d="M1500 310 c8 -5 22 -9 30 -9 10 0 8 3 -5 9 -27 12 -43 12 -25 0z"/>
<path d="M3170 313 c16 -8 1 -23 -18 -17 -14 5 -14 4 -3 -4 8 -6 20 -8 28 -5
16 6 12 26 -5 29 -7 1 -8 0 -2 -3z"/>
<path d="M1466 291 c-3 -4 6 -7 19 -7 14 0 22 2 19 5 -8 8 -34 10 -38 2z"/>
<path d="M3070 294 c0 -13 18 -39 24 -34 2 3 -2 14 -10 24 -8 11 -14 16 -14
10z"/>
<path d="M1683 275 c0 -8 4 -15 9 -15 4 0 8 4 8 9 0 6 -4 12 -8 15 -5 3 -9 -1
-9 -9z"/>
<path d="M1730 262 c6 -13 14 -21 18 -18 3 4 -2 14 -12 24 -18 16 -18 16 -6
-6z"/>
<path d="M3140 270 c0 -5 5 -10 11 -10 5 0 7 5 4 10 -3 6 -8 10 -11 10 -2 0
-4 -4 -4 -10z"/>
<path d="M3210 268 c0 -4 4 -8 9 -8 6 0 12 4 15 8 3 5 -1 9 -9 9 -8 0 -15 -4
-15 -9z"/>
<path d="M1764 261 c4 -7 19 -16 32 -21 28 -11 33 -30 5 -23 -22 6 -37 -12
-20 -23 8 -5 9 -3 4 5 -5 9 0 12 16 9 36 -5 30 23 -10 46 -19 11 -31 14 -27 7z"/>
<path d="M1634 246 c1 -8 5 -18 8 -22 4 -3 5 1 4 10 -1 8 -5 18 -8 22 -4 3 -5
-1 -4 -10z"/>
<path d="M1710 253 c0 -6 8 -17 18 -24 16 -13 16 -13 2 6 -8 11 -16 22 -17 24
-2 2 -3 0 -3 -6z"/>
<path d="M3110 251 c0 -6 4 -12 8 -15 5 -3 9 1 9 9 0 8 -4 15 -9 15 -4 0 -8
-4 -8 -9z"/>
<path d="M1668 243 c6 -2 10 -9 7 -13 -3 -5 0 -12 6 -16 8 -5 9 -3 4 6 -6 10
-3 12 11 7 18 -7 18 -7 0 8 -11 8 -25 15 -30 14 -6 0 -5 -3 2 -6z"/>
<path d="M1750 218 c-12 -22 -12 -22 6 -6 10 10 15 20 12 24 -4 3 -12 -5 -18
-18z"/>
<path d="M1850 222 c9 -19 14 -21 26 -12 7 7 11 16 8 21 -6 11 -14 12 -13 2 4
-22 -3 -25 -17 -7 -14 18 -15 18 -4 -4z"/>
<path d="M2958 233 c7 -3 16 -2 19 1 4 3 -2 6 -13 5 -11 0 -14 -3 -6 -6z"/>
<path d="M2876 205 c-9 -26 -7 -32 5 -12 6 10 9 21 6 23 -2 3 -7 -2 -11 -11z"/>
<path d="M2935 211 c-3 -5 0 -13 6 -17 7 -4 9 -3 5 4 -3 5 0 13 6 15 9 4 10 6
1 6 -6 1 -14 -3 -18 -8z"/>
<path d="M3025 209 c-3 -4 2 -6 10 -5 21 3 28 13 10 13 -9 0 -18 -4 -20 -8z"/>
<path d="M1715 201 c-3 -5 -2 -12 3 -15 5 -3 9 1 9 9 0 17 -3 19 -12 6z"/>
<path d="M2006 195 c-3 -8 -1 -15 4 -15 6 0 10 7 10 15 0 8 -2 15 -4 15 -2 0
-6 -7 -10 -15z"/>
<path d="M2826 193 c-6 -14 -5 -15 5 -6 7 7 10 15 7 18 -3 3 -9 -2 -12 -12z"/>
<path d="M1936 185 c4 -8 8 -15 10 -15 2 0 4 7 4 15 0 8 -4 15 -10 15 -5 0 -7
-7 -4 -15z"/>
<path d="M2640 190 c0 -5 5 -10 11 -10 5 0 7 5 4 10 -3 6 -8 10 -11 10 -2 0
-4 -4 -4 -10z"/>
<path d="M2670 190 c0 -5 5 -10 11 -10 5 0 7 5 4 10 -3 6 -8 10 -11 10 -2 0
-4 -4 -4 -10z"/>
<path d="M2896 184 c-5 -13 -4 -14 7 -6 8 7 18 8 22 4 5 -4 5 -1 1 6 -10 17
-23 15 -30 -4z"/>
<path d="M2100 180 c8 -5 22 -9 30 -9 10 0 8 3 -5 9 -27 12 -43 12 -25 0z"/>
<path d="M2153 168 c-2 -18 0 -20 7 -8 12 18 13 30 2 30 -4 0 -9 -10 -9 -22z"/>
<path d="M2796 174 c-4 -9 -4 -19 -1 -22 3 -3 5 0 5 7 0 7 4 9 10 6 6 -3 7 1
4 9 -8 20 -10 20 -18 0z"/>
<path d="M1975 170 c-4 -6 -4 -14 -1 -17 3 -4 6 -1 6 6 0 8 7 7 23 -4 20 -13
24 -13 24 0 0 8 -4 12 -9 9 -5 -3 -15 -1 -23 6 -10 8 -15 8 -20 0z"/>
<path d="M2074 173 c4 -6 1 -13 -6 -15 -7 -3 -2 -7 10 -10 12 -4 25 -1 29 5 3
7 3 9 -2 5 -4 -4 -14 0 -22 10 -8 9 -12 12 -9 5z"/>
<path d="M2230 170 c0 -6 4 -9 9 -5 5 3 12 -5 14 -17 5 -22 5 -21 4 1 -2 24
-27 44 -27 21z"/>
<path d="M2302 166 c10 -7 17 -15 15 -17 -1 -2 2 -1 8 4 6 5 4 11 -5 17 -23
15 -37 11 -18 -4z"/>
<path d="M2510 170 c0 -5 5 -10 10 -10 6 0 10 5 10 10 0 6 -4 10 -10 10 -5 0
-10 -4 -10 -10z"/>
<path d="M2570 173 c0 -6 5 -15 11 -18 6 -4 8 -14 4 -23 -3 -9 6 -3 20 12 14
16 24 30 22 32 -2 3 -10 -2 -17 -11 -11 -14 -14 -13 -26 2 -7 10 -14 13 -14 6z"/>
<path d="M2840 170 c-9 -6 -10 -10 -3 -10 6 0 15 5 18 10 8 12 4 12 -15 0z"/>
<path d="M2657 157 c-3 -8 1 -14 8 -14 7 0 11 6 8 14 -3 7 -6 13 -8 13 -2 0
-5 -6 -8 -13z"/>
<path d="M2693 152 c2 -12 6 -24 10 -28 3 -4 4 4 2 16 -6 30 -16 40 -12 12z"/>
<path d="M2750 159 c0 -5 5 -7 10 -4 6 3 10 8 10 11 0 2 -4 4 -10 4 -5 0 -10
-5 -10 -11z"/>
<path d="M2123 148 c-11 -19 -13 -39 -1 -32 5 3 7 9 4 12 -3 3 -1 11 5 19 6 7
9 13 6 13 -3 0 -9 -6 -14 -12z"/>
<path d="M2468 153 c6 -2 18 -2 25 0 6 3 1 5 -13 5 -14 0 -19 -2 -12 -5z"/>
<path d="M2540 152 c0 -5 7 -9 15 -9 8 0 12 4 9 9 -7 10 -24 10 -24 0z"/>
<path d="M2330 135 c-11 -13 -10 -14 4 -9 9 3 16 10 16 15 0 13 -6 11 -20 -6z"/>
<path d="M2441 143 c-1 -17 16 -25 25 -12 4 7 3 9 -4 5 -5 -3 -13 0 -15 6 -4
9 -6 10 -6 1z"/>
<path d="M2510 141 c0 -5 7 -12 16 -15 14 -5 15 -4 4 9 -14 17 -20 19 -20 6z"/>
<path d="M2056 128 c3 -5 10 -6 15 -3 13 9 11 12 -6 12 -8 0 -12 -4 -9 -9z"/>
<path d="M2190 120 c-6 -11 -8 -20 -6 -20 3 0 10 9 16 20 6 11 8 20 6 20 -3 0
-10 -9 -16 -20z"/>
<path d="M2215 121 c-3 -5 -2 -12 3 -15 5 -3 9 1 9 9 0 17 -3 19 -12 6z"/>
</g>
</svg>
